<?xml version="1.0" encoding="UTF-8"?>
<svg id="Layer_2" data-name="Layer 2" xmlns="http://www.w3.org/2000/svg" viewBox="0 0 512 512">
  <defs>
    <style>
      .cls-1 {
        fill: #00a6ce;
      }
    </style>
  </defs>
  <g id="Layer_1-2" data-name="Layer 1">
    <g>
      <path class="cls-1" d="M153.21,194.3c4.18,0,7.58-3.38,7.58-7.56s-3.41-7.56-7.58-7.56-7.58,3.38-7.58,7.56,3.41,7.56,7.58,7.56Z"/>
      <path class="cls-1" d="M318.63,115.32c4.18,0,7.58-3.38,7.58-7.56s-3.41-7.56-7.58-7.56-7.58,3.38-7.58,7.56,3.41,7.56,7.58,7.56Z"/>
      <path class="cls-1" d="M153.21,396.62c-4.18,0-7.58,3.38-7.58,7.56s3.41,7.56,7.58,7.56,7.58-3.38,7.58-7.56-3.41-7.56-7.58-7.56Z"/>
      <path class="cls-1" d="M311.05,263.3c4.18,0,7.58-3.38,7.58-7.56s-3.41-7.56-7.58-7.56-7.58,3.38-7.58,7.56,3.41,7.56,7.58,7.56Z"/>
      <path class="cls-1" d="M367.6,326.36c-4.18,0-7.58,3.38-7.58,7.56s3.41,7.56,7.58,7.56,7.58-3.38,7.58-7.56-3.41-7.56-7.58-7.56Z"/>
      <path class="cls-1" d="M256,0C114.62,0,0,114.62,0,256s114.62,256,256,256,256-114.62,256-256S397.38,0,256,0ZM121.72,164.48l1.26-2.36c4.86-9.12,13.55-13.79,24.51-12.92h.14c.11-.16.27-.38.44-.71,4.09-7.36,8.3-14.65,12.5-21.96,3.76-6.51,7.5-13.03,11.18-19.59,6.95-12.42,17.64-18.71,31.77-18.71h.36c13.63.11,19.98.11,25.06.11h10.5c4.34,0,10.08,0,19.37.05,2.83-9.37,8.9-13.93,13.71-16.16l2.17-.99h58.37l1.84.69c8.96,3.38,14.48,11.16,14.73,20.8.05,1.73.11,3.43.16,5.17.3,8.96.6,18.25-.66,27.75-1.62,12.28-9.76,19.4-22.29,19.54-4.59.05-9.21.05-13.82.05h-83.32c-4.34,0-7.47.22-10.39.69-1.98.3-3.35,1.07-4.48,2.45-1.65,1.98-3.05,4.37-4.48,6.95,1.92,2.67,2.94,6.05,2.94,9.86v42.1c0,4.23-1.35,7.94-3.71,10.74.47.82.91,1.68,1.32,2.56,1.98,4.07,4.78,6.79,12.12,6.81h36.03c2.42-5.33,7.72-8.68,14.32-8.68h28.99c8.52,0,17.04,0,25.56.08,11.57.11,19.87,7.36,21.16,18.49,1.51,13.14,1.46,25.97-.22,38.17-1.37,10.08-9.65,17.2-20.11,17.34-9.67.14-19.37.14-29.05.14h-26.41c-6.38,0-11.65-3.38-14.04-8.68h-9.86c-5.99,0-9.92-.03-13.19-.05h-6.57c-5.19,0-11.49.05-25.67.22h-.63c-15.09,0-26.38-6.73-33.61-20-4.18-7.69-8.68-15.47-13.03-22.97-3.35-5.74-6.68-11.51-9.92-17.31-.16-.3-.33-.55-.44-.71l.03-.05c-10.11.63-18.27-3.96-23.25-12.64l-1.4-2.47v-43.77ZM397.33,351.92c-1.57,11.82-9.51,19.18-20.69,19.18-.6,0-1.21,0-1.84-.05-.3-.03-.6-.03-.91-.03-1.73,0-2.53,0-4.45,3.68-3.98,7.58-8.33,15-12.5,22.2-2.94,5.06-5.96,10.28-8.82,15.42-7.28,13.22-18.82,19.92-34.29,19.92h-.36c-27.04-.16-38.8-.19-50.2-.19h-51.55c-2.23,5.36-7.53,8.71-14.12,8.71h-15.03c-13.16,0-26.33,0-39.49-.08-8.11-.05-14.76-4.15-19.78-12.2l-1.62-2.61v-44.05l1.29-2.39c3.19-5.91,9.78-12.97,22.97-12.97h.36c16.49.16,33,.11,49.49,0,9.32,0,13.77,4.67,15.86,8.74h33.69c10.88,0,15.75,0,43.61.03h2.42c2.91,0,5.85-.27,8.99-.8,1.21-.22,2.8-.74,4.53-2.94,1.43-1.84,2.72-4.04,4.01-6.38-1.79-2.39-3.13-5.74-3.13-10.41l-.05-7.2c-.08-8.99-.14-18.27.14-27.51.47-14.51,9.21-22.89,23.99-23,15-.08,30.01-.08,45.01,0l-.08.03c13.6.05,22.2,8,23,21.21.6,10.14,1.13,21.96-.41,33.69Z"/>
    </g>
  </g>
</svg>