<?xml version="1.0" encoding="UTF-8"?>
<svg id="Layer_2" data-name="Layer 2" xmlns="http://www.w3.org/2000/svg" xmlns:xlink="http://www.w3.org/1999/xlink" viewBox="0 0 465.74 157.42">
  <defs>
    <style>
      .cls-1 {
        clip-path: url(#clippath-1);
      }

      .cls-2 {
        clip-path: url(#clippath-3);
      }

      .cls-3 {
        clip-path: url(#clippath-2);
      }

      .cls-4 {
        fill: #fff;
      }

      .cls-5 {
        clip-path: url(#clippath);
      }
    </style>
    <clipPath id="clippath">
      <rect class="cls-4" x="92.86" y="120.77" width="7.95" height="7.93"/>
    </clipPath>
    <clipPath id="clippath-1">
      <rect class="cls-4" x="70.37" y="143.2" width="7.95" height="7.93"/>
    </clipPath>
    <clipPath id="clippath-2">
      <rect class="cls-4" x="92.85" y="143.2" width="7.95" height="7.93"/>
    </clipPath>
    <clipPath id="clippath-3">
      <rect class="cls-4" x="70.36" y="120.77" width="7.96" height="7.93"/>
    </clipPath>
  </defs>
  <g id="Front_info" data-name="Front info">
    <g>
      <g>
        <path class="cls-4" d="M240.44,43.53c-.89,0-1.78-.33-2.47-1-1.41-1.36-1.44-3.6-.08-5.01,2.28-2.34,3.53-5.43,3.53-8.69,0-3.38-1.33-6.55-3.75-8.92-1.4-1.37-1.42-3.61-.05-5.01,1.37-1.4,3.62-1.42,5.02-.05,3.79,3.71,5.88,8.67,5.88,13.97,0,5.11-1.96,9.95-5.53,13.62-.7.72-1.62,1.08-2.55,1.08Z"/>
        <path class="cls-4" d="M212.56,43.71c-.91,0-1.82-.35-2.51-1.04-3.71-3.7-5.75-8.61-5.75-13.84,0-5.35,2.12-10.34,5.97-14.06,1.41-1.36,3.65-1.33,5.02.08,1.36,1.4,1.33,3.64-.08,5.01-2.46,2.38-3.81,5.56-3.81,8.97,0,3.34,1.3,6.47,3.67,8.83,1.39,1.38,1.39,3.62,0,5.01-.69.69-1.6,1.04-2.51,1.04Z"/>
        <path class="cls-4" d="M247.54,50.62c-.9,0-1.79-.34-2.49-1.01-1.4-1.37-1.42-3.61-.05-5.01,4.16-4.23,6.46-9.83,6.46-15.76,0-6.06-2.38-11.75-6.7-16.01-1.39-1.37-1.41-3.62-.03-5.01,1.38-1.39,3.63-1.4,5.02-.03,5.68,5.6,8.81,13.08,8.81,21.05,0,7.8-3.01,15.15-8.49,20.72-.69.71-1.61,1.06-2.53,1.06Z"/>
        <path class="cls-4" d="M205.45,50.8c-.91,0-1.82-.35-2.51-1.04-5.6-5.59-8.69-13.02-8.69-20.92,0-8.01,3.16-15.52,8.89-21.13,1.4-1.37,3.65-1.35,5.02.05,1.37,1.4,1.35,3.64-.05,5.01-4.36,4.27-6.77,9.98-6.77,16.07,0,6.01,2.35,11.67,6.61,15.92,1.39,1.38,1.39,3.62,0,5.01-.69.69-1.6,1.04-2.51,1.04Z"/>
        <path class="cls-4" d="M254.33,57.38c-.9,0-1.8-.34-2.49-1.02-1.4-1.37-1.41-3.61-.03-5.01,5.97-6.04,9.26-14.04,9.26-22.52,0-8.62-3.38-16.71-9.52-22.78-1.39-1.38-1.4-3.62-.02-5.01,1.38-1.39,3.63-1.4,5.02-.02,7.49,7.41,11.62,17.29,11.62,27.81,0,10.36-4.01,20.12-11.3,27.49-.69.7-1.61,1.05-2.53,1.05Z"/>
        <path class="cls-4" d="M198.67,57.56c-.91,0-1.82-.35-2.51-1.04-7.42-7.4-11.5-17.23-11.5-27.69,0-10.46,4.08-20.29,11.5-27.69,1.39-1.38,3.63-1.38,5.02,0,1.39,1.38,1.39,3.62,0,5.01-6.08,6.06-9.42,14.12-9.42,22.68,0,8.57,3.35,16.63,9.42,22.68,1.39,1.38,1.39,3.62,0,5.01-.69.69-1.6,1.04-2.51,1.04Z"/>
        <g>
          <path class="cls-4" d="M176.13,60c-.26-.8.02-1.64.68-1.92l7.08-2.91c.66-.28,1.6.46,2,1.67.4,1.21.06,2.35-.64,2.51l-7.44,1.82c-.7.16-1.42-.37-1.69-1.17Z"/>
          <path class="cls-4" d="M173.47,55.16c-.27-.33-.41-.73-.41-1.11-.02-.36.1-.71.37-.96l5.69-5.12c.27-.24.68-.28,1.13-.13.44.16.91.51,1.3.99.78.99.85,2.17.26,2.56l-6.34,4.29c-.61.4-1.47.14-2-.53Z"/>
          <path class="cls-4" d="M169.18,50.99c-.68-.52-.96-1.37-.58-1.98l4.14-6.43c.38-.61,1.57-.57,2.57.2,1.03.73,1.39,1.88.93,2.4l-4.99,5.8c-.49.55-1.37.5-2.07.01Z"/>
          <path class="cls-4" d="M163.96,48.09c-.79-.33-1.29-1.06-1.08-1.75l2.29-7.29c.2-.68,1.36-.97,2.54-.49,1.19.43,1.84,1.44,1.53,2.07l-3.28,6.9c-.32.66-1.18.84-1.99.56Z"/>
          <path class="cls-4" d="M158.15,46.69c-.85-.11-1.53-.68-1.51-1.41l.27-7.64c.02-.71,1.05-1.29,2.31-1.14,1.26.1,2.16.9,2.03,1.59l-1.33,7.53c-.14.72-.92,1.12-1.77,1.06Z"/>
          <path class="cls-4" d="M152.16,46.87c-.85.09-1.65-.28-1.83-.97l-1.74-7.44c-.17-.7.68-1.54,1.93-1.7,1.25-.2,2.31.25,2.37.99l.69,7.61c.05.69-.59,1.38-1.43,1.51Z"/>
          <path class="cls-4" d="M146.45,48.59c-.77.37-1.68.15-2.03-.47l-3.66-6.71c-.35-.63.28-1.59,1.42-2.13,1.13-.58,2.33-.3,2.56.35l2.69,7.16c.26.7-.23,1.4-.98,1.81Z"/>
          <path class="cls-4" d="M141.38,51.75c-.63.58-1.55.62-2.06.11l-5.3-5.51c-.5-.51-.16-1.62.78-2.46.99-.79,2.16-.9,2.57-.32l4.49,6.19c.42.59.19,1.47-.48,1.99Z"/>
          <path class="cls-4" d="M137.33,56.16c-.5.69-1.32,1.02-1.95.65l-6.57-3.93c-.61-.35-.63-1.55.11-2.58.75-1.01,1.82-1.46,2.38-1l5.96,4.8c.55.46.6,1.39.08,2.06Z"/>
          <path class="cls-4" d="M134.61,61.46c-.33.79-1.03,1.31-1.73,1.13l-7.38-2.05c-.69-.18-1.03-1.33-.56-2.51.43-1.19,1.33-1.9,2.01-1.6l7.02,3.06c.63.29.92,1.17.64,1.97Z"/>
          <path class="cls-4" d="M133.37,67.29c-.04.85-.67,1.55-1.39,1.55l-7.66-.04c-.72,0-1.26-1.01-1.19-2.27.02-.31.07-.61.15-.87.1-.26.23-.49.38-.68.29-.37.65-.57,1.01-.52l7.58,1.09c.36.05.65.28.84.59.09.16.16.33.2.53.06.19.09.4.08.62Z"/>
          <path class="cls-4" d="M133.74,73.15c.19.81-.15,1.63-.85,1.85l-7.35,2.15c-.68.21-1.55-.61-1.84-1.85-.22-1.26.19-2.36.91-2.44l7.59-1.03c.71-.09,1.41.51,1.54,1.33Z"/>
          <path class="cls-4" d="M135.8,78.7c.36.78.28,1.65-.33,2.04l-6.51,4.02c-.6.38-1.68-.14-2.23-1.28-.58-1.12-.51-2.26.18-2.56l7-3.1c.63-.27,1.5.11,1.89.87Z"/>
          <path class="cls-4" d="M139.29,83.63c.6.63.66,1.58.19,2.09l-5.32,5.5c-.51.54-1.6.22-2.45-.68-.88-.89-1-2.08-.44-2.51l5.98-4.78c.58-.45,1.42-.22,2.05.39Z"/>
          <path class="cls-4" d="M143.91,87.61c.74.45,1.05,1.32.7,1.95l-3.82,6.62c-.35.63-1.5.61-2.57-.05-1.03-.7-1.46-1.79-1.03-2.35l4.64-6.08c.45-.57,1.36-.59,2.07-.1Z"/>
          <path class="cls-4" d="M149.32,90.28c.8.28,1.33.98,1.15,1.69l-1.95,7.39c-.17.68-1.33,1.03-2.53.61-1.19-.44-1.91-1.35-1.62-2l2.98-7.04c.29-.66,1.17-.95,1.96-.64Z"/>
          <path class="cls-4" d="M155.06,91.36c.81.08,1.55.59,1.58,1.32l.28,7.64c.03.7-.94,1.37-2.25,1.28-1.3-.07-2.27-.71-2.17-1.45l.9-7.59c.09-.68.84-1.25,1.66-1.19Z"/>
          <path class="cls-4" d="M160.99,90.79c.83-.19,1.67.14,1.89.83l2.29,7.29c.22.67-.57,1.56-1.81,1.84-1.23.3-2.34-.13-2.44-.83l-1.25-7.54c-.11-.72.49-1.39,1.31-1.6Z"/>
          <path class="cls-4" d="M166.57,88.65c.76-.39,1.64-.31,2.05.3l4.14,6.43c.39.59-.13,1.66-1.25,2.25-1.1.62-2.29.49-2.57-.15l-3.21-6.94c-.3-.67.1-1.46.84-1.89Z"/>
          <path class="cls-4" d="M171.39,85.11c.62-.59,1.51-.73,2.06-.25l5.69,5.12c.53.47.3,1.62-.62,2.49-.9.88-2.08,1.07-2.52.52l-4.93-5.85c-.46-.56-.28-1.44.32-2.04Z"/>
        </g>
        <ellipse class="cls-4" cx="226.76" cy="28.84" rx="11.26" ry="11.23"/>
        <path class="cls-4" d="M226.76,102.19c-3.92,0-7.1-3.17-7.1-7.08V30.14c0-3.91,3.18-7.08,7.1-7.08,3.92,0,7.1,3.17,7.1,7.08v64.97c0,3.91-3.18,7.08-7.1,7.08Z"/>
        <g>
          <path class="cls-4" d="M424.83,99.84c3.41-3.68,3.36-9.16,3.26-10.7v-33.74c0-2.95-.02-6.98,2.28-9.28,1.75-1.75,4.88-2.64,9.31-2.64s7.73.94,9.59,2.8c2.5,2.5,2.49,6.67,2.48,9.43,0,2.95-.01,6.85-.01,10.84h-1.52v10.65h-.87c-.31,0-.58.25-.61.56l-1.02,12.26c-.03.31.21.56.51.56h16.99c.31,0,.54-.25.51-.56l-1.02-12.26c-.03-.31-.3-.56-.61-.56h-.81v-10.65h-1.61c0-3.98,0-7.86.01-10.81.01-3.59.03-11.05-5.38-16.46-3.79-3.79-9.38-5.71-16.63-5.71s-12.67,1.87-16.35,5.55c-5.21,5.21-5.2,12.43-5.19,16.3v33.88s.01.35.01.35c.08,1.21-.2,2.8-.55,3.35-.38-.68-.68-2.36-.64-3.63V20.7c0-2.74-2.22-4.96-4.96-4.96s-4.97,2.22-4.97,4.96v68.35c-.05,1.45-.02,7.3,3.52,11,1.82,1.9,4.21,2.9,6.91,2.9,2.93,0,5.47-1.07,7.35-3.11Z"/>
          <rect class="cls-4" x="451.61" y="91.54" width="10.23" height="9.76"/>
        </g>
        <path class="cls-4" d="M371.35,101.71c1.26,0,2.48-.3,3.72-.47.47-.07.78-.33.83-.84.03-.25.08-.49.12-.74.23-1.7.44-3.39.7-5.09.05-.33.09-.7.53-.86.91-.34,1.8-.71,2.68-1.11.43-.2.72-.07,1.07.2,1.47,1.14,2.97,2.25,4.46,3.36.78.58.79.58,1.57.06,3.38-2.26,6.19-5.08,8.48-8.43.67-.98.51-.84-.08-1.66-1.07-1.48-2.17-2.94-3.3-4.37-.01-.02-.01-.03-.02-.05l-3.7-4.32c-.5-.42-1.25-.94-2.19-.9-1.09.04-1.89,1.03-1.89,1.03v-.07c-2.85,5.62-8.7,9.47-15.45,9.47-9.58,0-17.34-7.74-17.34-17.29s7.76-17.29,17.34-17.29c6.49,0,12.13,3.56,15.1,8.82v-.03s.79.99,1.88,1.03c.53.02,1-.14,1.4-.35l5.27-4.83c1.04-1.33,2.05-2.68,3.05-4.04.47-.64.46-.65.03-1.31-2.27-3.41-5.13-6.24-8.52-8.54-1-.68-.81-.56-1.66.05-1.51,1.08-2.99,2.22-4.47,3.35-.36.28-.65.35-1.07.16-.78-.36-1.57-.71-2.39-.98-.53-.18-.74-.52-.81-1.01-.17-1.2-.31-2.4-.47-3.61-.1-.71-.21-1.41-.31-2.12-.07-.52-.34-.85-.88-.92-1.13-.15-2.25-.44-3.4-.45-1.87-.02-3.74-.06-5.6.02-1.14.05-2.27.28-3.4.46-.42.07-.7.31-.76.77-.1.74-.24,1.48-.34,2.22-.17,1.2-.31,2.4-.48,3.61-.07.48-.24.85-.78,1.02-.78.25-1.53.6-2.28.94-.48.22-.83.18-1.26-.17-1.43-1.13-2.9-2.23-4.38-3.29-.84-.6-.68-.73-1.66-.07-3.34,2.25-6.13,5.04-8.4,8.36-.65.95-.61.8.08,1.74,1.07,1.48,2.17,2.93,3.3,4.37.31.4.36.72.15,1.17-.34.75-.68,1.5-.94,2.28-.17.52-.5.75-.99.82-.67.09-1.35.17-2.02.26-1.2.16-2.41.3-3.61.5-.81.13-.92.29-1.07,1.1-.27,1.48-.48,2.96-.46,4.47.03,2.47-.09,4.94.45,7.37.2.91.29,1.04,1.23,1.2.14.02.29.02.43.03,1.7.23,3.4.45,5.1.7.43.06.77.24.93.75.24.78.57,1.55.92,2.29.23.48.22.81-.13,1.25-1.18,1.49-2.3,3.02-3.43,4.54-.5.68-.49.68-.02,1.4.65.99,1.38,1.91,2.15,2.82,1.9,2.27,4.1,4.2,6.56,5.84.18.12.37.21.55.31.39-.08.65-.34.93-.54,1.49-1.11,2.99-2.23,4.46-3.36.32-.25.6-.32.98-.15.82.37,1.64.74,2.49,1.02.51.17.67.51.74.94.11.67.18,1.34.27,2.02.16,1.2.32,2.4.49,3.6.08.57.33,1,.98,1.09,1.35.18,2.68.47,4.05.46,1.51-.02,3.02,0,4.53,0Z"/>
        <g>
          <g>
            <polygon class="cls-4" points="69.32 97.96 71.23 99.86 79.81 91.31 79.81 70.42 71.23 61.87 69.32 63.78 69.32 97.96"/>
            <path class="cls-4" d="M71.23,101.87l-3.33-3.32v-35.35s3.33-3.32,3.33-3.32l9.99,9.97v22.06s-9.99,9.97-9.99,9.97ZM70.74,97.37l.49.49,7.15-7.14v-19.72s-7.15-7.14-7.15-7.14l-.49.49v33.01Z"/>
          </g>
          <g>
            <polygon class="cls-4" points="79.81 49.31 79.81 28.42 71.23 19.87 69.32 21.78 69.32 55.96 71.23 57.86 79.81 49.31"/>
            <path class="cls-4" d="M71.23,59.87l-3.33-3.32V21.19s3.33-3.32,3.33-3.32l9.99,9.97v22.06s-9.99,9.97-9.99,9.97ZM70.74,55.37l.49.49,7.15-7.14v-19.72s-7.15-7.14-7.15-7.14l-.49.49v33.01Z"/>
          </g>
          <g>
            <polygon class="cls-4" points="80.89 54.64 75.64 59.87 80.89 65.1 101.83 65.1 107.07 59.87 101.83 54.64 80.89 54.64"/>
            <path class="cls-4" d="M102.42,66.51h-22.12s-6.66-6.65-6.66-6.65l6.66-6.65h22.12s6.66,6.65,6.66,6.65l-6.66,6.65ZM81.47,63.68h19.77s3.82-3.81,3.82-3.81l-3.82-3.81h-19.77s-3.82,3.81-3.82,3.81l3.82,3.81Z"/>
          </g>
          <g>
            <polygon class="cls-4" points="102.91 70.42 102.91 91.31 111.48 99.86 113.39 97.96 113.39 63.78 111.48 61.87 102.91 70.42"/>
            <path class="cls-4" d="M111.48,101.87l-9.99-9.97v-22.06s9.99-9.97,9.99-9.97l3.33,3.32v35.35s-3.33,3.32-3.33,3.32ZM104.32,90.72l7.16,7.14.49-.49v-33.01s-.49-.49-.49-.49l-7.16,7.14v19.72Z"/>
          </g>
        </g>
        <path class="cls-4" d="M63.54,74.5c-.18-3.04-2.16-4.87-5.29-4.88-3.45-.02-6.9-.02-10.36,0-3.4.02-5.41,1.95-5.52,5.29-.07,2.12-.05,4.26-.03,6.33v1.66c.02,1.07.32,1.85.73,2.4-.3.54-.59,1.04-.92,1.46-.4.51-.76.63-1.04.67-.72.12-1.4.18-2.07.18h-.56c-6.41,0-7.53,0-10.03,0h-7.72s-.02,0-.03,0c-.48-.94-1.5-2.01-3.65-2.01-3.8.03-7.59.04-11.39,0h-.08c-3.04,0-4.55,1.62-5.28,2.98L0,89.13v10.13s.38.6.38.6c1.15,1.85,2.69,2.79,4.56,2.81,3.03.02,6.06.02,9.09.02h3.46c1.52,0,2.74-.77,3.25-2h5.22s6.64,0,6.64,0c2.62,0,5.33,0,11.55.05h.08c3.56,0,6.21-1.54,7.89-4.59.65-1.18,1.35-2.39,2.03-3.55.96-1.65,1.96-3.36,2.88-5.11.45-.85.63-.85,1.03-.85.07,0,.14,0,.21,0,.14.01.29.02.42.02,2.58,0,4.4-1.69,4.76-4.41.36-2.7.24-5.42.1-7.76ZM7.25,96.02c-.96,0-1.75-.78-1.75-1.74,0-.96.78-1.74,1.75-1.74.96,0,1.75.78,1.75,1.74,0,.96-.78,1.74-1.75,1.74ZM56.59,79.86c-.96,0-1.75-.78-1.75-1.74,0-.96.78-1.74,1.75-1.74.96,0,1.75.78,1.75,1.74,0,.96-.78,1.74-1.75,1.74Z"/>
        <path class="cls-4" d="M52.32,55.89c-.3-2.56-2.21-4.23-4.87-4.26-1.96-.02-3.92-.02-5.88-.02h-5.53s-1.14,0-1.14,0c-1.52,0-2.74.77-3.29,2h-8.29c-1.69,0-2.34-.63-2.79-1.57-.1-.2-.2-.4-.3-.59.55-.65.85-1.5.85-2.47,0-3.23,0-6.46,0-9.69,0-.88-.24-1.66-.68-2.27.33-.59.65-1.14,1.03-1.6.26-.32.58-.49,1.03-.57.67-.11,1.39-.16,2.39-.16h0c4.62,0,6.2,0,8.12,0h6.99s4.06,0,4.06,0c1.06,0,2.12,0,3.18-.01,2.88-.03,4.76-1.67,5.13-4.5.29-2.19.22-4.33.15-6.39-.01-.4-.03-.79-.04-1.19-.06-2.22-1.33-4.01-3.39-4.79l-.42-.16h-13.43s-.5.23-.5.23c-1.11.51-2.51,1.56-3.16,3.72-2.14,0-3.46-.01-4.46-.01h-2.41c-1.17,0-2.63,0-5.77-.03h-.08c-3.25,0-5.71,1.45-7.31,4.31-.84,1.51-1.71,3.01-2.57,4.51-.97,1.68-1.94,3.36-2.88,5.05-.04.07-.07.13-.1.16h-.03c-2.52-.2-4.52.87-5.64,2.97L0,39.13v10.08s.33.57.33.57c1.14,2,3.02,3.06,5.35,2.91.03.04.06.09.1.17.75,1.34,1.51,2.66,2.28,3.99,1,1.73,2.03,3.52,3,5.29,1.66,3.05,4.26,4.6,7.73,4.6h.14c3.26-.04,4.71-.05,5.9-.05h1.51c.76,0,1.66.01,3.04.01h2.27c.55,1.22,1.76,2,3.23,2h6.07c2.23,0,4.46,0,6.68-.03,2.41-.03,4.31-1.67,4.63-3.99.38-2.81.4-5.76.05-8.78ZM45.32,24.34c.96,0,1.75.78,1.75,1.74,0,.96-.78,1.74-1.75,1.74-.96,0-1.75-.78-1.75-1.74,0-.96.78-1.74,1.75-1.74ZM7.25,45.99c-.96,0-1.75-.78-1.75-1.74,0-.96.78-1.74,1.75-1.74.96,0,1.75.78,1.75,1.74,0,.96-.78,1.74-1.75,1.74ZM43.57,61.87c-.96,0-1.75-.78-1.75-1.74,0-.96.78-1.74,1.75-1.74.96,0,1.75.78,1.75,1.74s-.78,1.74-1.75,1.74Z"/>
        <path class="cls-4" d="M320.8,89.52c1.74-2.12,1.42-5.24-.71-6.97-2.13-1.73-5.26-1.42-6.99.7-4.33,5.29-10.73,8.32-17.56,8.32-12.49,0-22.65-10.14-22.65-22.59s10.16-22.59,22.65-22.59,21.68,9.22,22.57,20.87h-17.08c-1.71,0-3.09,1.9-3.09,4.25s1.38,4.25,3.09,4.25h28.36c1.71,0,3.09-1.9,3.09-4.25s-1.38-4.25-3.09-4.25h-1.34c-.91-17.12-15.12-30.79-32.5-30.79s-32.59,14.58-32.59,32.51,14.62,32.51,32.59,32.51c9.83,0,19.04-4.36,25.26-11.96Z"/>
        <path class="cls-4" d="M187.07,72.16c.07-.53.33-2.82.28-5.81h-.08c.05-.23.09-.47.09-.73,0-1.34-.69-2.33-1.41-2.25l-7.63.71c-.71.08-1.23.79-1.23,1.57,0,.35.12.66.3.92h-22.2c-2.74,0-4.97,2.22-4.97,4.96s2.22,4.96,4.97,4.96h31.32l.56-4.32Z"/>
      </g>
      <g>
        <polygon class="cls-4" points="131.36 142.42 134.68 130.63 137.41 130.63 132.7 146.33 129.98 146.33 126.62 134.32 123.26 146.33 120.57 146.33 115.87 130.63 118.58 130.63 121.94 142.42 125.31 130.63 127.99 130.63 131.36 142.42"/>
        <path class="cls-4" d="M154.39,138.52c0,4.51-3.42,8.17-7.91,8.17s-7.91-3.66-7.91-8.17,3.45-8.29,7.91-8.29,7.91,3.72,7.91,8.29M151.8,138.52c0-3.26-2.38-5.91-5.32-5.91s-5.28,2.65-5.28,5.91,2.38,5.79,5.28,5.79,5.32-2.59,5.32-5.79"/>
        <path class="cls-4" d="M180.02,146.33h-2.6v-9.78c0-2.44-1.16-3.93-3.57-3.93-2.14,0-3.7,1.77-3.7,4.11v9.6h-2.57v-9.78c0-2.44-1.22-3.93-3.54-3.93-2.14,0-3.73,1.77-3.73,4.11v9.6h-2.6v-15.69h2.5v1.71c.98-1.31,2.44-2.1,4.19-2.1,2.23,0,3.88,1,4.86,2.68.98-1.62,2.66-2.68,4.92-2.68,3.64,0,5.83,2.47,5.83,6.37v9.72Z"/>
        <path class="cls-4" d="M198.72,141.45c-1.1,3.35-3.79,5.24-7.42,5.24-4.52,0-8.07-3.59-8.07-8.2s3.54-8.26,7.91-8.26c4.06,0,7.97,3.35,7.94,8.93h-13.23c.34,3.26,2.84,5.18,5.44,5.18,2.23,0,3.82-1.07,4.68-2.9h2.75ZM196.22,136.85c-.64-2.56-2.78-4.27-5.07-4.27-2.17,0-4.46,1.59-5.13,4.27h10.2Z"/>
        <path class="cls-4" d="M215.4,146.33h-2.57v-9.54c0-2.41-1.34-4.17-3.85-4.17s-4.12,1.77-4.12,4.11v9.6h-2.6v-15.69h2.51v1.71c1.07-1.31,2.69-2.1,4.58-2.1,3.85,0,6.05,2.74,6.05,6.64v9.45Z"/>
        <g>
          <path class="cls-4" d="M234.76,140.08c0,3.87-2.78,6.62-6.63,6.62s-6.66-2.75-6.66-6.62v-12.8h2.57v3.35h10.63v2.47h-10.63v6.98c0,2.38,1.65,4.11,4.09,4.11s4.06-1.74,4.06-4.11v-1.43h2.57v1.43Z"/>
          <path class="cls-4" d="M253.06,141.45c-1.1,3.35-3.79,5.24-7.42,5.24-4.52,0-8.07-3.6-8.07-8.2s3.55-8.26,7.91-8.26c4.07,0,7.97,3.35,7.94,8.93h-13.23c.34,3.26,2.84,5.18,5.44,5.18,2.23,0,3.82-1.07,4.67-2.89h2.75ZM250.55,136.85c-.64-2.56-2.78-4.27-5.07-4.27-2.17,0-4.46,1.58-5.13,4.27h10.2Z"/>
          <path class="cls-4" d="M263.33,146.69c-4.34,0-7.89-3.66-7.89-8.2s3.54-8.26,7.89-8.26c3.51,0,6.26,2.07,7.33,5.24h-2.78c-.89-1.71-2.51-2.77-4.55-2.77-2.9,0-5.29,2.62-5.29,5.79s2.38,5.73,5.29,5.73c2.08,0,3.7-1.07,4.55-2.77h2.78c-1.04,3.17-3.82,5.24-7.33,5.24"/>
          <path class="cls-4" d="M286.94,146.32h-2.57v-9.54c0-2.44-1.43-4.11-3.85-4.11s-4.12,1.71-4.12,4.05v9.6h-2.6v-22.67h2.6v8.56c1.07-1.22,2.63-1.98,4.49-1.98,3.85,0,6.05,2.74,6.05,6.64v9.45Z"/>
        </g>
        <polygon class="cls-4" points="75.31 135.95 69.68 141.56 64.06 135.95 69.69 130.35 75.31 135.95"/>
        <polygon class="cls-4" points="107.11 135.95 101.48 141.56 95.86 135.95 101.49 130.35 107.11 135.95"/>
        <polygon class="cls-4" points="85.58 125.7 79.97 120.09 85.58 114.49 91.21 120.09 85.58 125.7"/>
        <polygon class="cls-4" points="85.58 157.42 79.97 151.81 85.58 146.21 91.21 151.81 85.58 157.42"/>
        <path class="cls-4" d="M91.44,135.54c0,2.99-2.43,5.42-5.44,5.42s-5.44-2.43-5.44-5.42,2.44-5.43,5.44-5.43,5.44,2.43,5.44,5.43"/>
        <g>
          <rect class="cls-4" x="92.86" y="120.77" width="7.95" height="7.93"/>
          <g class="cls-5">
            <rect class="cls-4" x="92.86" y="120.77" width="7.95" height="7.93"/>
          </g>
        </g>
        <g>
          <rect class="cls-4" x="70.37" y="143.2" width="7.95" height="7.93"/>
          <g class="cls-1">
            <rect class="cls-4" x="70.37" y="143.2" width="7.95" height="7.93"/>
          </g>
        </g>
        <g>
          <rect class="cls-4" x="92.85" y="143.2" width="7.95" height="7.93"/>
          <g class="cls-3">
            <rect class="cls-4" x="92.85" y="143.2" width="7.95" height="7.93"/>
          </g>
        </g>
        <g>
          <rect class="cls-4" x="70.36" y="120.77" width="7.96" height="7.93"/>
          <g class="cls-2">
            <rect class="cls-4" x="70.36" y="120.77" width="7.95" height="7.93"/>
          </g>
        </g>
        <g>
          <path class="cls-4" d="M299.95,146.69c-4.34,0-7.88-3.66-7.88-8.2s3.54-8.26,7.88-8.26c3.51,0,6.26,2.07,7.33,5.24h-2.78c-.88-1.71-2.51-2.77-4.55-2.77-2.9,0-5.29,2.62-5.29,5.79s2.38,5.73,5.29,5.73c2.08,0,3.7-1.07,4.55-2.77h2.78c-1.04,3.17-3.82,5.24-7.33,5.24"/>
          <path class="cls-4" d="M325.09,138.52c0,4.51-3.42,8.17-7.91,8.17s-7.91-3.66-7.91-8.17,3.45-8.29,7.91-8.29,7.91,3.72,7.91,8.29M322.5,138.52c0-3.26-2.38-5.91-5.32-5.91s-5.29,2.65-5.29,5.91,2.38,5.79,5.29,5.79,5.32-2.59,5.32-5.79"/>
          <path class="cls-4" d="M341.35,146.33h-2.51v-1.71c-1.07,1.28-2.65,2.07-4.58,2.07-3.85,0-6.05-2.74-6.05-6.61v-9.45h2.56v9.57c0,2.5,1.37,4.14,3.88,4.14,2.32,0,4.09-1.74,4.09-4.09v-9.63h2.6v15.69Z"/>
          <path class="cls-4" d="M358.95,146.33h-2.57v-9.54c0-2.41-1.35-4.18-3.85-4.18s-4.13,1.77-4.13,4.12v9.6h-2.6v-15.69h2.5v1.71c1.07-1.31,2.69-2.1,4.58-2.1,3.85,0,6.05,2.74,6.05,6.64v9.45Z"/>
          <path class="cls-4" d="M370.07,146.69c-4.34,0-7.88-3.66-7.88-8.2s3.54-8.26,7.88-8.26c3.51,0,6.26,2.07,7.34,5.24h-2.78c-.89-1.71-2.51-2.77-4.55-2.77-2.9,0-5.28,2.62-5.28,5.79s2.38,5.73,5.28,5.73c2.08,0,3.7-1.07,4.55-2.77h2.78c-1.04,3.17-3.82,5.24-7.34,5.24"/>
          <path class="cls-4" d="M383.18,128.26h-2.6v-3.08h2.6v3.08ZM383.18,146.33h-2.6v-15.69h2.6v15.69Z"/>
          <rect class="cls-4" x="389.47" y="123.66" width="2.6" height="22.67"/>
          <path class="cls-4" d="M398.65,123.62c1.64,0,3.02,1.3,3.02,3.01s-1.38,3.01-3.02,3.01-3.02-1.3-3.02-3.01,1.37-3.01,3.02-3.01ZM398.65,129.22c1.38,0,2.49-1.12,2.49-2.58s-1.1-2.58-2.49-2.58-2.49,1.12-2.49,2.58,1.1,2.58,2.49,2.58ZM397.5,124.87h1.33c.84,0,1.24.33,1.24,1.01s-.41.91-.93.96l1.02,1.56h-.58l-.96-1.52h-.58v1.52h-.54v-3.53ZM398.04,126.44h.55c.48,0,.94-.02.94-.59,0-.49-.42-.54-.79-.54h-.71v1.13Z"/>
        </g>
      </g>
    </g>
  </g>
</svg>