<?xml version="1.0" encoding="UTF-8"?>
<svg id="Layer_2" data-name="Layer 2" xmlns="http://www.w3.org/2000/svg" viewBox="0 0 134.14 134.14">
  <defs>
    <style>
      .cls-1 {
        fill: #ff91b0;
      }
    </style>
  </defs>
  <g id="Front_info" data-name="Front info">
    <g>
      <path class="cls-1" d="M67.07,134.14C30.09,134.14,0,104.05,0,67.07S30.09,0,67.07,0s67.07,30.09,67.07,67.07-30.09,67.07-67.07,67.07ZM67.07,2.66C31.55,2.66,2.65,31.55,2.65,67.07s28.9,64.42,64.42,64.42,64.42-28.9,64.42-64.42S102.59,2.66,67.07,2.66Z"/>
      <path class="cls-1" d="M83.24,89.46c-5.06-.1-9.48-3.43-11-8.26-1.94-6.2,1.5-12.82,7.68-14.76,1.21-.38,2.47-.56,3.73-.53,5.06.1,9.48,3.43,11,8.27.94,3,.66,6.19-.8,8.98-1.45,2.79-3.89,4.84-6.88,5.78-1.21.38-2.47.56-3.73.53ZM83.61,68.57c-.98-.02-1.95.12-2.88.41-2.31.72-4.2,2.31-5.33,4.47-1.12,2.16-1.34,4.62-.61,6.95,1.17,3.75,4.59,6.32,8.51,6.4.98.02,1.95-.12,2.88-.41,4.78-1.5,7.44-6.62,5.94-11.42-1.17-3.75-4.59-6.32-8.5-6.4Z"/>
      <path class="cls-1" d="M87.21,106.37c-2.49-.05-4.67-1.69-5.42-4.07l-.4-1.27c-.33-1.08-1.25-1.9-2.39-2.14l-.47-.11c-.24-.06-.47-.09-.7-.09-.91-.02-1.78.35-2.38,1l-.89.97c-1.04,1.14-2.47,1.8-4.02,1.87h-.38c-1.4-.02-2.75-.57-3.79-1.53l-4.65-4.29c-2.35-2.17-2.51-5.85-.35-8.2l.89-.97c.76-.83,1.01-2.04.65-3.16l-.14-.46c-.34-1.12-1.23-1.98-2.34-2.22l-1.28-.29c-3.11-.7-5.09-3.81-4.4-6.93l1.37-6.18c.34-1.51,1.24-2.81,2.55-3.64.96-.61,2.07-.92,3.2-.9.39,0,.78.06,1.17.14l1.29.29c.2.05.4.07.6.07.92.02,1.8-.37,2.44-1.08l.33-.36c.79-.85,1.08-2.05.74-3.13l-.4-1.27c-.96-3.05.75-6.32,3.79-7.27l6.02-1.89c.6-.19,1.22-.27,1.84-.26,2.49.05,4.67,1.69,5.42,4.07l.4,1.27c.33,1.08,1.25,1.9,2.39,2.15l.47.11c.24.06.47.09.7.09.91.02,1.78-.35,2.38-1l.89-.97c1.04-1.14,2.47-1.8,4.02-1.87h.37c1.41.02,2.76.57,3.8,1.53l4.65,4.29c2.35,2.17,2.51,5.85.35,8.2l-.89.97c-.76.84-1.01,2.04-.65,3.16l.14.46c.34,1.12,1.23,1.97,2.33,2.22l1.29.29c3.11.7,5.08,3.81,4.39,6.94l-1.37,6.18c-.34,1.51-1.24,2.8-2.55,3.63-.96.62-2.07.92-3.19.9-.39,0-.78-.05-1.17-.14l-1.29-.29c-.19-.05-.4-.07-.6-.07-.92-.02-1.8.37-2.44,1.07l-.33.36c-.79.85-1.08,2.04-.74,3.13l.4,1.27c.96,3.05-.74,6.32-3.79,7.27l-6.03,1.89c-.6.19-1.22.27-1.84.26ZM77.88,96.03c.42,0,.84.06,1.25.16l.42.09c2.08.44,3.75,1.96,4.38,3.95l.4,1.26c.4,1.29,1.58,2.18,2.93,2.21.34,0,.67-.04,1-.15l6.02-1.89c.79-.25,1.45-.79,1.83-1.53.39-.75.47-1.6.21-2.41l-.39-1.26c-.63-1.99-.11-4.19,1.33-5.74l.29-.31c1.15-1.28,2.78-2,4.48-1.97.38,0,.76.05,1.13.14l1.29.29c.21.05.42.07.62.08.61.01,1.21-.15,1.73-.48.71-.45,1.2-1.15,1.38-1.97l1.37-6.18c.38-1.7-.69-3.38-2.38-3.76l-1.28-.29c-2.04-.46-3.68-2.01-4.3-4.05l-.13-.4c-.66-2.02-.2-4.24,1.22-5.78l.89-.97c1.17-1.27,1.08-3.27-.19-4.44l-4.65-4.29c-.57-.52-1.29-.82-2.05-.83-1.04.04-1.81.4-2.37,1.01l-.89.97c-1.12,1.22-2.72,1.9-4.4,1.86-.42,0-.84-.06-1.25-.16l-.41-.1c-2.08-.44-3.75-1.95-4.38-3.95l-.39-1.26c-.41-1.29-1.59-2.18-2.94-2.21-.33,0-.67.04-.99.14l-6.02,1.89c-1.65.52-2.57,2.29-2.04,3.94l.4,1.26c.62,1.99.11,4.19-1.33,5.74l-.29.32c-1.15,1.28-2.78,2-4.48,1.97-.38,0-.76-.05-1.13-.14l-1.28-.29c-.21-.05-.42-.07-.63-.08-.61-.01-1.21.15-1.73.48-.7.44-1.2,1.14-1.38,1.97l-1.37,6.18c-.38,1.69.69,3.38,2.38,3.76l1.29.29c2.04.46,3.68,2.01,4.3,4.05l.13.4c.66,2.02.2,4.24-1.21,5.78l-.89.97c-1.17,1.27-1.09,3.27.19,4.45l4.65,4.29c.57.52,1.3.82,2.06.83,1.03-.04,1.8-.39,2.36-1.01l.89-.98c.68-.74,1.55-1.29,2.51-1.6.61-.19,1.24-.28,1.88-.26Z"/>
      <path class="cls-1" d="M62.54,22.39c-2-2-4.76-3.23-7.81-3.23s-5.81,1.24-7.81,3.23c-.69.69-1.25,1.51-1.74,2.36-.13.09-.24.2-.32.34-3.42,5.56-6.73,6.7-9.23,7.08-1.42.21-2.47,1.37-2.56,2.8-.09,1.4.76,2.6,2.11,2.99,1.43.41,3.21.64,5.04.64,2.19,0,4.42-.37,6.23-1.16.16.19.3.39.47.56,2,2,4.76,3.23,7.81,3.23s5.81-1.24,7.81-3.23c2-2,3.23-4.76,3.23-7.81s-1.24-5.81-3.23-7.81ZM61.03,36.49c-1.61,1.61-3.84,2.61-6.3,2.61s-4.68-1-6.3-2.61c-.22-.22-.37-.49-.56-.74-.03-.09-.04-.19-.09-.28-.1-.18-.26-.3-.42-.4-.06-.1-.15-.18-.21-.28-.13.04-.29.08-.43.12-.14.01-.28.05-.41.12-.42.12-.85.23-1.26.33.03.07.08.12.11.19-2.72,1.01-6.74.95-9.34.21-.4-.11-.46-.41-.45-.64,0-.1.06-.6.62-.69,4.37-.66,7.81-3.25,10.83-8.14.1-.16.14-.34.15-.52l.35-.47c.06-.09.13-.18.2-.27l.18-.25s.02,0,.02,0c.24-.31.46-.62.74-.89,1.61-1.61,3.84-2.61,6.3-2.61s4.68,1,6.3,2.61c1.61,1.61,2.61,3.84,2.61,6.3s-1,4.68-2.61,6.3Z"/>
      <path class="cls-1" d="M82.56,43.52c-1.42-1.8-3.73-2.84-6.56-1.97l-12.59,2.28-13.43-1.97c-2.02-.2-4.07.08-5.96.83-1.83.73-3.52,1.89-4.9,3.48l-15.37,17.64c-1.45,1.68-2.09,3.79-1.94,5.84.08,1.08.37,2.14.88,3.12l-3.98,10.97c-.17.41-.38.75-.62,1.05-.25.3-.55.56-.92.79l-10.09,6.48c.27.65.53,1.35.77,2.04l10.47-6.73c.54-.35,1-.75,1.4-1.22.4-.48.72-1,.96-1.59l3.48-9.79c.11.11.22.21.34.32h0s0,0,0,0c2.12,1.86,4.27,3.7,6.4,5.54l-3.72,10.25c-.17.39-.37.73-.62,1.03-.25.3-.56.56-.92.79l-14.73,6.19c-.29.19-.58.44-.86.72.31.52.67,1.11,1.06,1.74.32-.24.64-.46.96-.67l14.73-6.19c.54-.35,1-.75,1.39-1.21.39-.46.7-.99.96-1.58l3.31-9.28,4.85,3.71c.26.35.46.7.59,1.06.13.37.21.77.23,1.2l5.34,18.53c1.13,4.31,3.08,5.08,3.91,5.31.94.26,1.72.3,2.52-.05,2.1-.93,3.15-2.9,3.01-5.86l-2.22-21.82c-.03-.64-.15-1.24-.35-1.82-.21-.57-.5-1.11-.89-1.62l-8.54-13.38,13.15-12.25s7.62-.14,11.71-.56c4.1-.42,15.15-4.8,15.15-4.8-.37-.01.39-.59,1.26-1.36.73-1.1,1.35-2.4,1.25-3.08-.12-.85-.34-1.49-.88-2.17ZM78.49,48.97l-12.71,4-12.05.4c-.35-.05-.71.07-.96.36l-13.99,13.22c-.36.37-.41.96-.09,1.39l9.06,14.07c.26.35.45.7.59,1.06.13.37.21.76.23,1.19l2.22,21.82c.09,1.93-.47,3.82-2.27,3.82s-2.17-1.68-2.91-3.42l-5.34-18.53c-.03-.65-.15-1.25-.36-1.83-.21-.58-.51-1.12-.9-1.63l-5.94-5.14c-.06-.07-.12-.13-.19-.19l-6.86-5.94s-.07-.07-.11-.1c-.43-.38-.8-.82-1.09-1.29-.02-.04-.04-.07-.07-.11-.47-.8-.74-1.69-.81-2.6-.11-1.49.34-3.02,1.37-4.24.04-.04.07-.08.1-.12l15.32-17.58c1.14-1.32,2.55-2.29,4.07-2.89,1.59-.63,3.31-.87,4.99-.7.02,0,.05,0,.07,0l13.64,1.98c.12,0,.24-.01.35-.05l12.76-2.33c1.85-.57,3.34.1,4.26,1.25.37.47.09-.3.27.29.18.58.19-.2.15.4-.11,1.47-.97,2.86-2.82,3.43Z"/>
      <path class="cls-1" d="M118.12,67.1s-.08,0-.11,0c-.57-.06-.98-.58-.92-1.15.07-.62.11-1.25.11-1.89,0-7.17-4.52-13.67-11.23-16.17-.54-.2-.81-.79-.61-1.33.2-.54.8-.81,1.33-.61,7.53,2.8,12.59,10.08,12.59,18.11,0,.72-.04,1.43-.12,2.12-.06.53-.51.92-1.03.92Z"/>
    </g>
  </g>
</svg>