<?xml version="1.0" encoding="UTF-8"?>
<svg id="Layer_2" data-name="Layer 2" xmlns="http://www.w3.org/2000/svg" viewBox="0 0 134 134">
  <defs>
    <style>
      .cls-1 {
        fill: #e1e0f0;
      }
    </style>
  </defs>
  <g id="Front_info" data-name="Front info">
    <g>
      <path class="cls-1" d="M67,134C30.06,134,0,103.94,0,67S30.06,0,67,0s67,30.05,67,67-30.06,67-67,67ZM67,2.65C31.52,2.65,2.65,31.52,2.65,67s28.87,64.35,64.35,64.35,64.35-28.87,64.35-64.35S102.48,2.65,67,2.65Z"/>
      <g>
        <path class="cls-1" d="M75.01,99.36c-.12,0-.24-.02-.35-.05-.28-.09-.52-.3-.66-.56l-2.26-4.42c-.28-.56-.06-1.24.49-1.53s1.24-.06,1.53.49l1.74,3.41,6.59-3.37-3.67-7.18c-.25-.48-.12-1.06.3-1.4,1.3-1.05,2.53-2.24,3.67-3.56.37-.43,1-.52,1.47-.22l6.96,4.41,3.96-6.26-7.14-4.52c-.46-.29-.65-.87-.45-1.38.59-1.48,1.06-3.07,1.39-4.73.11-.54.66-.86,1.15-.91l8.51.26.23-7.41-8.53-.26c-.55-.02-1.01-.43-1.09-.98-.22-1.61-.59-3.22-1.1-4.8-.17-.52.06-1.08.53-1.35l7.43-4.09-3.57-6.49-7.26,3.99c-.5.27-1.11.14-1.45-.31-1.03-1.35-2.19-2.61-3.43-3.74-.4-.36-.48-.95-.21-1.42l4.13-7-6.38-3.77-3.81,6.45c-.32.54-1.02.71-1.56.4-.54-.32-.72-1.02-.4-1.56l4.39-7.43c.16-.26.4-.45.69-.52.29-.07.6-.03.86.12l8.33,4.93c.54.32.72,1.01.4,1.55l-4.25,7.19c.85.83,1.66,1.71,2.42,2.64l7.41-4.08c.55-.3,1.24-.1,1.54.45l4.66,8.47c.3.55.1,1.24-.45,1.54l-7.62,4.19c.32,1.1.58,2.22.77,3.34l8.72.26c.3,0,.59.14.79.36.21.22.32.51.31.81l-.3,9.68c0,.3-.14.59-.36.79-.22.21-.51.33-.81.31l-8.7-.27c-.26,1.13-.59,2.23-.97,3.29l7.32,4.64c.53.34.69,1.04.35,1.57l-5.17,8.17c-.16.26-.42.44-.71.5-.3.07-.6.01-.85-.15l-7.1-4.5c-.83.9-1.7,1.74-2.6,2.52l3.77,7.38c.28.56.06,1.24-.49,1.53l-8.61,4.41c-.16.08-.34.12-.52.12Z"/>
        <path class="cls-1" d="M67.5,119.83c-3.13,0-6.3-.53-9.18-1.59-6.06-2.23-10.28-7.51-14-12.16-7.02-8.77-22.29-32.45-13.46-63.84,4.67-16.59,17.83-27.33,34.35-28.03,8.9-.35,17.8,2.09,25.25,6.91,8.44,5.46,12.32,16.58,13.59,21.11,8.83,31.39-6.45,55.07-13.42,63.79l-.18.23c-3.18,3.98-6.79,8.49-11.64,11.01-3.28,1.7-7.26,2.56-11.28,2.56ZM66.92,16.45c-.55,0-1.09.01-1.64.04-15.51.65-27.87,10.75-32.26,26.37-8.55,30.38,6.25,53.31,13.01,61.76,3.75,4.69,7.59,9.49,13.06,11.5,5.93,2.18,13.42,1.83,18.64-.86,4.43-2.29,7.73-6.42,10.91-10.41l.18-.23h0c6.76-8.45,21.56-31.38,13.01-61.76-1.2-4.28-4.84-14.78-12.63-19.82-6.6-4.27-14.46-6.58-22.29-6.58Z"/>
        <path class="cls-1" d="M26.79,78.1h-5.57c-3.13,0-5.68-2.55-5.68-5.68v-13.57c0-3.13,2.55-5.68,5.68-5.68h4.05c.63,0,1.13.51,1.13,1.13s-.51,1.13-1.13,1.13h-4.05c-1.88,0-3.41,1.53-3.41,3.41v13.57c0,1.88,1.53,3.41,3.41,3.41h5.57c.63,0,1.13.51,1.13,1.13s-.51,1.13-1.13,1.13Z"/>
        <path class="cls-1" d="M112.78,78.1h-4.42c-.63,0-1.13-.51-1.13-1.13s.51-1.13,1.13-1.13h4.42c1.88,0,3.41-1.53,3.41-3.41v-13.57c0-1.88-1.53-3.41-3.41-3.41h-2.9c-.63,0-1.13-.51-1.13-1.13s.51-1.13,1.13-1.13h2.9c3.13,0,5.68,2.55,5.68,5.68v13.57c0,3.13-2.55,5.68-5.68,5.68Z"/>
        <path class="cls-1" d="M67.43,110.65c-.63,0-1.13-.51-1.13-1.13V24.49c0-.63.51-1.13,1.13-1.13s1.13.51,1.13,1.13v85.03c0,.63-.51,1.13-1.13,1.13Z"/>
        <path class="cls-1" d="M49.64,77.63c-7.26,0-13.17-5.91-13.17-13.17s5.91-13.17,13.17-13.17,13.17,5.91,13.17,13.17-5.91,13.17-13.17,13.17ZM49.64,53.56c-6.01,0-10.9,4.89-10.9,10.9s4.89,10.9,10.9,10.9,10.9-4.89,10.9-10.9-4.89-10.9-10.9-10.9Z"/>
        <path class="cls-1" d="M49.64,70.79c-3.49,0-6.33-2.84-6.33-6.33s2.84-6.33,6.33-6.33,6.33,2.84,6.33,6.33-2.84,6.33-6.33,6.33ZM49.64,60.4c-2.24,0-4.06,1.82-4.06,4.06s1.82,4.06,4.06,4.06,4.06-1.82,4.06-4.06-1.82-4.06-4.06-4.06Z"/>
        <path class="cls-1" d="M89.65,23.1c-.47,0-.91-.3-1.07-.77-.2-.59.11-1.24.71-1.44l11.67-3.99c.59-.21,1.24.11,1.44.71.2.59-.11,1.24-.71,1.44l-11.67,3.99c-.12.04-.25.06-.37.06Z"/>
        <path class="cls-1" d="M106.76,25.46c-.32,0-.64-.13-.86-.4l-5.44-6.35c-.41-.48-.35-1.19.12-1.6.47-.41,1.19-.35,1.6.12l5.44,6.35c.41.48.35,1.19-.12,1.6-.21.18-.48.27-.74.27Z"/>
        <path class="cls-1" d="M107.28,98.34c-.12,0-.25-.02-.37-.06l-10.01-3.43c-.59-.2-.91-.85-.7-1.44.2-.59.84-.9,1.44-.7l10.01,3.43c.59.2.91.85.7,1.44-.16.47-.6.77-1.07.77Z"/>
        <path class="cls-1" d="M109.27,32.06c-2.71,0-4.91-2.2-4.91-4.91s2.2-4.91,4.91-4.91,4.91,2.2,4.91,4.91-2.2,4.91-4.91,4.91ZM109.27,24.51c-1.46,0-2.64,1.19-2.64,2.64s1.18,2.64,2.64,2.64,2.64-1.18,2.64-2.64-1.19-2.64-2.64-2.64Z"/>
        <path class="cls-1" d="M110.76,103.59c-2.71,0-4.91-2.2-4.91-4.91s2.2-4.91,4.91-4.91,4.91,2.2,4.91,4.91-2.2,4.91-4.91,4.91ZM110.76,96.04c-1.46,0-2.64,1.19-2.64,2.64s1.19,2.64,2.64,2.64,2.64-1.18,2.64-2.64-1.18-2.64-2.64-2.64Z"/>
      </g>
    </g>
  </g>
</svg>