<?xml version="1.0" encoding="UTF-8"?>
<svg id="Layer_2" data-name="Layer 2" xmlns="http://www.w3.org/2000/svg" viewBox="0 0 130.71 125.47">
  <defs>
    <style>
      .cls-1 {
        fill: #ff91b0;
      }

      .cls-2 {
        fill: #ad1a76;
      }
    </style>
  </defs>
  <g id="Front_info" data-name="Front info">
    <g>
      <path class="cls-1" d="M52.24,20.99c8.28-1.66,17.44-11.58,21.04-20.99.8,8.7,5.72,19.16,14.57,19.33,5.78.11,16.57.83,24.85-6.63-4.14,5.8-7.52,16.3-5.78,20.17s5.7,6.32,9.79,7.93c4.45,1.75,9.23,2.74,13.99,3.73-3.89,2.19-16.42,12.07-15.52,22.83.83,9.94,8.68,17.77,12.28,23.48-4.55-.82-10.94.21-15.59,1.37-3.73.93-7.45,3.31-10.71,9.02-2.62,4.59-2.26,9.75-1.27,14.56-2.23-3.75-7.1-5.23-11.73-5.71-15.91-1.62-30.83,2.17-40.34,15.38-.46-5.03-.96-10.19-3.31-14.57-3.1-5.78-9.23-9.39-15.73-11.58-5.36-1.8-12.06-.8-19.6-1.3,7.46-6.32,11.26-18.08,7.9-26.31-2.78-6.82-10.18-10.49-17.08-13.67,9.7.67,19.69-6.21,23.62-15.05s6.46-21.15,1.29-28.63c8,5.74,19.05,8.28,27.33,6.63Z"/>
      <g>
        <path class="cls-2" d="M40.06,65.16c0-.23.03-.46.1-.69.17-.83.49-2.03.94-3.58.46-1.55.87-2.74,1.23-3.54.15-.29.27-.58.35-.88.09-.3.14-.5.16-.6.11-.42.17-.67.19-.74-.01-.11-.02-.23-.03-.34,0-.09.02-.19.06-.28.04-.1.12-.21.22-.32.3-.3.62-.86.96-1.7.41-1.29.81-2.59,1.22-3.89.13-.41.26-.81.38-1.22.02-.1.06-.26.13-.5.06-.24.1-.4.1-.5,0-.09-.02-.14-.06-.13-.17.06-.51.14-1.02.21-.26.07-.45.12-.58.14-.13.02-.22.04-.29.07-.07,0-.15.01-.22.02-.41.03-.61-.12-.61-.44.06-.42.2-.82.4-1.2.2-.38.45-.6.75-.65.42-.14.83-.28,1.25-.43.19-.07.46-.12.8-.16.3-.03.61-.04.93-.01.26-.22.39-.4.42-.54.09-.41.28-.74.58-1.02.3-.27.61-.44.93-.49.26-.04.47,0,.64.12.17.12.26.33.26.63,0,.13-.01.24-.03.32,0,.02,0,.06,0,.12,0,.06.07.08.19.05.21-.04.84-.27,1.89-.74.17-.06.46-.15.88-.27.42-.13.76-.22,1.04-.28.41-.09.72-.13.93-.11.19-.09.36-.15.51-.19.15-.04.28-.08.38-.13.36-.09.59-.18.67-.27.19,0,.41-.02.66-.05.25-.03.42-.04.53-.02.11.02.2.05.29.1.06.07.09.15.1.22,0,.07-.01.12-.03.15-.02,0-.04-.01-.06-.02.02,0,.06,0,.11.02.05.02.11.06.18.11.17.05.26.25.26.62,0,.28-.04.57-.13.87-.02.14-.07.26-.14.33-.07.08-.25.16-.53.24-.28.08-.64.17-1.09.26-.81.09-1.48.19-2.02.32-.75.17-1.9.55-3.46,1.08-.38.09-.74.22-1.07.37-.33.15-.54.25-.62.28-.11.02-.27.22-.48.6-.21.38-.41.85-.58,1.41-.13.23-.52,1.29-1.18,3.18-.26.68-.51,1.36-.77,2.04.26.06.75.05,1.47-.06.96-.14,2.36-.45,4.19-1.01.83-.35,1.4-.55,1.7-.57.19-.02.36.09.5.32.14.23.21.51.21.83,0,.23-.04.45-.13.65-.08.2-.2.37-.35.5-.45.4-1.38.84-2.79,1.27-.94.27-2.23.55-3.87.77-.88.12-1.4.15-1.57.12-.04.03-.1.1-.18.23-.07.12-.11.27-.11.43-.38.8-.92,2.2-1.62,4.2-.69,1.99-1.04,3.19-1.04,3.6-.15.43-.27.9-.35,1.44-.02.09-.05.22-.1.39-.04.16-.09.27-.13.32-.06.35-.28.53-.64.55-.3,0-.53-.09-.7-.29-.73-.35-1.09-.91-1.09-1.65Z"/>
        <path class="cls-2" d="M55.3,62.3c-.17-.19-.22-.5-.16-.93.06-.8.22-1.75.48-2.85.05-.24.11-.49.16-.73.06-.64.4-1.95,1.01-3.94.61-1.99,1.11-3.36,1.52-4.12.21-.28.58-.5,1.09-.64.43-.12.73-.11.9.03.17.09.26.3.26.62,0,.53-.31,1.56-.93,3.07-.11.27-.21.54-.32.82-.15.34-.27.65-.37.93-.1.28-.09.39.02.34.23-.5.81-1.26,1.71-2.28.91-1.02,1.53-1.68,1.87-1.97.15-.14.34-.29.58-.45.23-.16.39-.28.48-.35.38-.32.82-.56,1.31-.72.34-.1.63-.14.88-.12.24.02.41.13.5.31.02.15.08.27.18.33.1.06.16.1.21.11.06-.02.11,0,.13.05s.03.09.03.11c0,.18-.15.47-.45.85-.3.39-.61.64-.93.76-.24.1-.48.23-.74.4-.26.17-.51.37-.77.58-.28.26-.55.52-.83.77-.73.61-1.34,1.18-1.84,1.71-.5.53-1.01,1.16-1.52,1.91-.11.15-.26.35-.46.61-.2.26-.38.55-.53.87-.15.2-.31.67-.46,1.39-.16.73-.24,1.17-.24,1.33-.02.08-.07.22-.13.45-.06.22-.16.43-.29.63-.19.3-.35.53-.48.68-.13.15-.27.24-.42.28-.21.05-.46-.03-.74-.27-.3-.18-.53-.37-.7-.56Z"/>
        <path class="cls-2" d="M67.91,59.21c-.75-.5-1.12-1.43-1.12-2.79,0-.53.03-1.13.1-1.8.04-.56.25-1.4.62-2.49.37-1.09.88-2.2,1.54-3.34.65-1.14,1.41-2.07,2.29-2.8.41-.34.75-.6,1.02-.77.28-.17.6-.32.96-.44.87-.29,1.59-.35,2.13-.18.54.17.93.43,1.15.8.22.37.34.71.34,1.03,0,.06,0,.11,0,.17,0,.03,0,.07,0,.1,0,.28-.15.83-.45,1.67-.3.84-.77,1.68-1.42,2.55-.65.86-1.49,1.5-2.51,1.9-.51.17-1.01.28-1.49.34-.48.05-.78.1-.91.15-.32.11-.52.3-.61.58-.09.29-.13.73-.13,1.32.06.62.23,1.02.5,1.19.27.17.66.17,1.17,0,.26-.09.56-.27.9-.54.34-.3.75-.72,1.22-1.27.26-.31.46-.54.61-.69.15-.14.33-.25.54-.32.19-.06.42,0,.67.19.26.19.39.41.42.66-.04.29-.28.78-.7,1.48-.43.69-.98,1.38-1.66,2.04-.68.66-1.42,1.13-2.21,1.39-1.22.4-2.2.36-2.95-.14ZM72.8,50.22c.21-.19.54-.59.98-1.21.44-.62.67-1.02.69-1.21,0-.23-.09-.39-.27-.48-.18-.09-.43-.1-.75-.04-.12.04-.23.08-.35.12-.28.09-.68.47-1.2,1.14-.52.67-.98,1.39-1.36,2.17.02.11.18.16.48.14.3-.02.62-.08.96-.2.41-.13.68-.27.83-.42Z"/>
        <path class="cls-2" d="M77.19,53.38c0-1.09.25-2.4.75-3.93.5-1.54,1.13-2.97,1.89-4.31.76-1.33,1.51-2.3,2.26-2.9.4-.35.87-.61,1.41-.77.96-.28,1.8-.29,2.51-.04.71.25,1.07,1,1.07,2.25,0,.72-.22,1.56-.67,2.54-.45.98-1.01,1.85-1.68,2.63-.67.78-1.33,1.27-1.97,1.46-.96.29-1.77.21-2.43-.26-.36.9-.54,1.71-.54,2.42,0,.57.06,1,.19,1.27.13.27.43.33.9.19.45-.14.81-.32,1.09-.54.28-.23.53-.47.77-.72.23-.25.42-.45.54-.58.04-.04.09-.07.13-.11-.01,0-.02,0-.03,0,.38-.35.66-.61.85-.79.18-.18.34-.31.46-.39.32-.09.62-.07.9.06.28.13.42.35.42.65,0,.23-.19.66-.58,1.29-.38.62-.78,1.11-1.18,1.43-.13.11-.26.21-.38.32.01,0,.02,0,.03,0-.19.33-.38.53-.58.58-.09.02-.17.05-.26.08-.09.21-.37.48-.85.81-.48.33-.94.56-1.36.69-2.43.76-3.65-.33-3.65-3.34ZM83.99,46.59c.39-.67.59-1.28.59-1.83,0-.26-.06-.47-.18-.64-.12-.17-.27-.23-.46-.18-.36.1-.77.41-1.22.91-.45.5-.84,1.1-1.18,1.81-.14.29-.28.57-.42.86.08-.07.15-.12.19-.13.17-.05.3-.01.38.12.08.13.18.24.29.33.11.08.28.08.51.02.6-.18,1.09-.6,1.49-1.27Z"/>
        <path class="cls-2" d="M43.71,92.66c-.51-.26-.98-.55-1.41-.85-.43-.3-.72-.51-.86-.63-.36-.38-.64-.8-.83-1.25-.19-.45-.35-1.04-.48-1.78-.04-.28-.06-.52-.06-.73,0-.69.11-1.54.34-2.55.22-1.01.45-1.79.69-2.35.47-1.24,1.51-3.21,3.1-6.04.09-.1.14-.17.18-.2.03-.04.04-.07.02-.09,0-.16.31-.9.93-2.23.36-.45.54-.83.54-1.13,0-.16-.03-.28-.1-.37-.06-.09.02-.3.26-.63.24-.34.56-.72.98-1.15.42-.43.86-.82,1.33-1.17.58-.57,1.14-.9,1.7-1,.17-.03.32-.02.43.01.12.04.18.11.21.22,0,.14.43.02,1.28-.38.38-.17.66-.28.83-.34.09-.13.3-.28.66-.43.35-.16.85-.35,1.49-.59.34-.06.76-.16,1.26-.3.5-.15.83-.25.98-.31.15-.09.37-.04.66.14.29.18.52.44.69.79.04.13.06.23.06.3,0,.34-.2.7-.61,1.05-.41.35-.99.67-1.76.95-.79.31-1.48.59-2.08.84-.6.25-1.34.57-2.24.96-.22.09-.45.18-.67.27-.66.24-1.15.47-1.47.71-.32.24-.66.69-1.02,1.38-.15.14-.34.46-.58.97-.24.51-.47,1.03-.7,1.57-.21.34-.43.68-.64,1.02-.49.78-.8,1.28-.91,1.51-.12.23-.14.39-.08.48.08.01.24.03.46.05.23.02.41.03.56.04.19-.14.46-.26.8-.35.34-.1.59-.17.74-.24.23-.1.47-.21.7-.32,1.32-.58,2.29-1.03,2.91-1.32.62-.29,1.08-.48,1.38-.6.11-.12.24-.19.38-.22.23-.05.46.02.69.21.22.19.39.44.5.73.08.3.13.5.13.59,0,.39-.21.74-.64,1.03-.43.29-1.28.75-2.56,1.32-1.86.85-3.02,1.33-3.49,1.54-1.39.64-2.41.97-3.07,1.04-.56.05-.82-.12-.8-.52-.19-.1-.42.12-.67.68-.26.55-.47,1.22-.66,2.02-.18.79-.27,1.49-.27,2.06,0,.3.03.56.1.76.19.54.48.99.86,1.35.38.35.92.6,1.6.75.15,0,.34.01.56,0,.23,0,.48-.02.78-.06.43-.05.85-.2,1.28-.45,1.66-.54,2.84-1.18,3.52-1.84.11-.07.21-.16.3-.3.1-.14.19-.21.27-.23-.01.03-.02.05-.03.08,0,.02.07-.04.19-.2.13-.15.27-.31.42-.48.6-.68,1.26-1.1,1.98-1.27.26-.06.47-.07.66-.03.18.04.28.09.3.15.13.2.06.58-.19,1.16-.26.57-.66,1.2-1.2,1.87-.54.68-1.15,1.29-1.81,1.85-1.05.81-2.21,1.48-3.5,1.97-1.29.49-2.53.81-3.73.94-.51,0-1.03-.12-1.54-.39Z"/>
        <path class="cls-2" d="M59.14,84.79c-.4-1.27-.69-2.49-.86-3.65-.08-.46-.26-1.08-.51-1.84-.04-.18-.06-.32-.06-.43,0-.34.09-.72.26-1.12.17-.4.36-.7.58-.9.08-.09.27-.19.56-.31.29-.12.49-.17.59-.18.47.06.9,1.34,1.28,3.86.09.69.15,1.19.21,1.5.05.31.08.52.08.63.04.12.09.28.13.45.04.18.09.29.13.34.04.06.12.01.22-.13.23-.33.59-.89,1.06-1.7.23-.39.59-1.03,1.06-1.91.31-.54.62-1.09.93-1.64.26-.45.6-.96,1.02-1.53.43-.58.76-.93.99-1.08.3-.14.54-.16.72-.04.18.11.27.32.27.62,0,.44-.17.97-.51,1.58-.13.23-.26.52-.4.87-.14.36-.23.56-.27.62-.24.58-.67,1.43-1.3,2.56-.63,1.12-1.05,1.83-1.26,2.13-.04.06-.22.27-.53.65-.31.37-.59.79-.85,1.26-.66.89-1.28,1.42-1.86,1.59-.28.08-.51.04-.7-.11-.24-.12-.56-.81-.96-2.09Z"/>
        <path class="cls-2" d="M69.16,84.8c-.75-.5-1.12-1.42-1.12-2.79,0-.53.03-1.13.1-1.8.04-.57.25-1.4.62-2.49.37-1.09.89-2.21,1.54-3.34.65-1.14,1.41-2.07,2.29-2.8.41-.34.75-.6,1.02-.77.28-.18.6-.32.96-.44.88-.29,1.58-.35,2.13-.18.54.17.93.44,1.15.8.22.37.34.71.34,1.03v.28c0,.28-.15.83-.45,1.67-.3.83-.77,1.68-1.42,2.54-.65.86-1.49,1.49-2.51,1.9-.51.17-1.01.28-1.49.34-.48.05-.78.1-.91.15-.32.11-.52.3-.61.58-.09.28-.13.73-.13,1.32.06.63.23,1.02.5,1.19.27.17.66.16,1.17,0,.26-.08.56-.27.9-.54.34-.3.75-.72,1.22-1.27.26-.31.46-.54.61-.69.15-.14.33-.25.54-.32.19-.07.41,0,.67.2.26.19.39.42.42.66-.04.29-.28.79-.7,1.48-.43.69-.98,1.38-1.66,2.04-.68.67-1.42,1.13-2.21,1.39-1.22.4-2.2.36-2.95-.14ZM74.05,75.81c.21-.19.54-.59.98-1.21.44-.62.67-1.02.69-1.21,0-.23-.09-.39-.27-.48-.18-.09-.43-.1-.75-.05-.12.04-.23.08-.35.12-.28.09-.68.47-1.2,1.14-.52.67-.98,1.39-1.36,2.17.02.11.18.16.48.14.3-.02.62-.08.96-.2.41-.14.68-.27.83-.41Z"/>
        <path class="cls-2" d="M90.31,74.21c-.04.21-.13.68-.27,1.4-.14.72-.22,1.25-.24,1.6,0,.26.05.5.14.74.09.25.14.39.14.43,0,.23-.1.48-.29.74-.19.27-.44.44-.74.51-.53.13-.99,0-1.38-.39-.38-.4-.58-.99-.58-1.81,0-.69.23-2.05.7-4.06.04-.26.08-.47.11-.6.03-.13.05-.25.05-.34,0-.11-.03-.17-.1-.15-.15.04-.36.21-.64.5-.28.29-.58.62-.9.99-.27.31-.53.63-.8.95-.34.32-1.06,1.16-2.14,2.52-.15.16-.51.58-1.07,1.27-.57.69-.89,1.05-.98,1.08-.09.02-.27,0-.56-.05-.29-.06-.55-.16-.8-.32-.25-.15-.37-.38-.37-.68,0-.34.19-1.2.58-2.57.38-1.37.84-2.73,1.38-4.1.06-.2.14-.57.22-1.11.09-.86.22-1.42.42-1.69.13-.27.31-.44.54-.51.43-.13.82-.01,1.2.34.37.35.56.81.56,1.36,0,.39-.1.94-.3,1.63-.2.7-.35,1.11-.43,1.25.06-.07.2-.22.4-.48.2-.25.47-.55.82-.88.73-.81,1.27-1.36,1.63-1.68.36-.32.62-.55.77-.71.08-.09.15-.17.21-.21.05-.05.09-.07.11-.08.06-.04.19-.13.37-.25.18-.13.33-.21.43-.23.32-.08.65-.04,1.01.11.35.16.53.36.53.62,0,.07.07.17.22.31.15.14.28.32.38.53.11.22.16.57.16,1.05,0,.37-.17,1.35-.51,2.96Z"/>
        <path class="cls-2" d="M94.74,79.98c-.35-.34-.53-.88-.53-1.62,0-.18.02-.49.06-.91.09-.34.15-.67.19-1.01.11-.52.21-.85.32-.96.02-.03.04-.07.06-.15.02-.07,0-.13-.06-.16,0-.3.1-.73.29-1.3.04-.17.1-.34.16-.51.06-.17.11-.29.13-.33-.04-.04-.06-.1-.06-.2,0-.12.06-.24.18-.38.12-.14.2-.25.26-.35.05-.1.05-.2-.02-.27-.04-.11.16-.66.61-1.66.28-.64.43-1,.45-1.07-.02-.06.13-.52.46-1.35.33-.83.59-1.45.78-1.87.19-.14.12-.21-.22-.21-.34,0-.76.04-1.25.15-.7.08-1.25.14-1.63.15-.38.01-.69-.03-.93-.12-.15-.13-.22-.32-.22-.58,0-.3.1-.6.3-.89.2-.29.45-.48.75-.55.56-.12,1.41-.35,2.56-.65.54-.12,1.09-.24,1.63-.35.03-.2.06-.4.1-.6.11-.22.21-.41.3-.57.1-.16.16-.3.19-.42.03-.12.06-.29.08-.53.06-.1.18-.34.34-.73.16-.39.26-.75.3-1.1.23-.46.45-.9.65-1.32.2-.42.32-.67.37-.74.38-.65.81-.99,1.28-1.02.26-.02.52.07.8.24.28.19.49.38.64.53.15.16.22.38.22.65,0,.21-.1.51-.29.91-.08.18-.21.56-.38,1.12-.15.21-.31.5-.48.87-.17.37-.29.71-.35,1.04-.04.12-.11.28-.19.48-.09.2-.14.32-.18.36-.03.04-.08.06-.14.06.02.14.07.23.13.27.06.04.17.06.32.05.11,0,.24-.02.4-.05.16-.03.36-.05.59-.06.21-.03.4-.07.56-.12.16-.05.31-.07.46-.08.08,0,.21.03.38.1.11.14.16.4.16.8,0,.3-.04.59-.13.85-.08.26-.19.43-.32.5-.11.03-.34.09-.7.22-.36.12-.76.21-1.19.25-.57.08-1.13.18-1.7.28-.18.41-.36.81-.54,1.22-.15.29-.28.57-.38.83-.11.27-.18.42-.22.47,0,.12-.09.35-.26.72-.17.36-.3.65-.38.87-.11.33-.24.67-.39,1-.15.33-.25.55-.29.64-.07,0-.1.03-.11.06-.01.03-.02.09-.02.16.02.09.04.18.06.27,0,.11-.05.24-.16.37-.09.06-.17.15-.24.27-.07.13-.12.21-.14.26.04.04.06.1.06.16,0,.16-.08.38-.22.65,0,.39-.15,1-.45,1.83.02.41.04.68.06.79.02.11.07.15.16.12.05,0,.11-.01.16-.02.23-.04.47-.08.7-.12.15-.09.19.08.11.51-.08.42-.26,1.08-.56,1.97-.32.57-.66,1.09-1.01,1.54-.35.46-.58.69-.69.71-.83.1-1.43,0-1.78-.34Z"/>
      </g>
    </g>
  </g>
</svg>