<?xml version="1.0" encoding="UTF-8"?>
<svg id="Layer_2" data-name="Layer 2" xmlns="http://www.w3.org/2000/svg" viewBox="0 0 134.14 134.14">
  <defs>
    <style>
      .cls-1 {
        fill: #ff91b0;
      }
    </style>
  </defs>
  <g id="Front_info" data-name="Front info">
    <g>
      <path class="cls-1" d="M67.07,134.14C30.09,134.14,0,104.05,0,67.07S30.09,0,67.07,0s67.07,30.09,67.07,67.07-30.09,67.07-67.07,67.07ZM67.07,2.66C31.55,2.66,2.66,31.55,2.66,67.07s28.89,64.42,64.41,64.42,64.41-28.9,64.41-64.42S102.59,2.66,67.07,2.66Z"/>
      <g>
        <path class="cls-1" d="M101.97,56.81c.26.26.62.4.96.4s.7-.13.97-.4c.53-.53.53-1.4,0-1.93l-4.62-4.62,4.62-4.62c.26-.26.4-.6.4-.96s-.14-.71-.4-.97c-.26-.26-.6-.4-.97-.4h0c-.36,0-.71.14-.96.4l-4.62,4.62-4.62-4.62c-.54-.53-1.4-.53-1.93,0-.53.53-.53,1.4,0,1.93l4.62,4.62-4.62,4.62c-.53.53-.53,1.4,0,1.93h0c.53.53,1.39.53,1.93,0l4.62-4.62,4.62,4.62Z"/>
        <path class="cls-1" d="M113.61,114.25l-7.33-12.46c-.65-1.13-1.71-1.94-2.98-2.28-.37-.1-.74-.15-1.12-.16-.13-2.34-.69-5.08-1.67-8.15-1.5-4.7-3.68-9.26-5.24-12.24l-5.32-9.23c-.43-.75-1-1.39-1.67-1.89,2.77,1.43,5.86,2.2,9.07,2.2,5.28,0,10.24-2.05,13.98-5.79,3.73-3.74,5.79-8.7,5.79-13.98s-2.05-10.24-5.79-13.98c-3.74-3.73-8.7-5.79-13.98-5.79s-10.25,2.05-13.98,5.79c-3.73,3.74-5.79,8.7-5.79,13.98s2.05,10.25,5.79,13.98c1.11,1.11,2.34,2.05,3.65,2.86-.31-.14-.63-.27-.96-.36-1.61-.43-3.3-.23-4.74.57-.07.04-.14.07-.19.11-1.13.67-2.01,1.67-2.55,2.85-.85-1.15-2.07-1.98-3.48-2.36-1.55-.41-3.17-.24-4.57.49h0s-.27.15-.27.15c-1.15.66-2.05,1.66-2.6,2.85l-.5-.86c-.85-1.47-2.23-2.53-3.89-2.97-1.63-.43-3.33-.22-4.75.58l-.11.05c-1.15.66-2.05,1.66-2.6,2.85l-4.3-7.45c1.54-1.68,2.76-3.6,3.64-5.7,1.01-2.42,1.53-4.99,1.53-7.63,0-5.28-2.05-10.24-5.79-13.98-3.74-3.73-8.7-5.79-13.98-5.79s-10.25,2.05-13.98,5.79c-3.73,3.74-5.79,8.7-5.79,13.98s2.05,10.25,5.79,13.98c4.25,4.24,10.05,6.35,16.18,5.66.4-.04.79-.1,1.18-.17l9.68,16.76-1.22,13.43h0c-.14,1.55.18,3.06.93,4.36.75,1.31,1.89,2.35,3.3,3.01l19.23,9.02c-.32.46-.56.99-.72,1.54-.33,1.24-.17,2.54.48,3.7l5.66,10.8c.04.08.1.13.12.15l.22.29,2.35-1.36-.25-.36c-.04-.06-.07-.08-.07-.06l-5.68-10.83c-.27-.49-.34-1.07-.19-1.62.14-.54.47-.99.93-1.28l25.79-14.9s.11-.06.12-.07c.49-.26,1.06-.33,1.61-.19.55.14,1.01.49,1.29.95.03.05.05.1.07.12l7.23,12.27.28.51,1.99-1.15.39-.11-.2-.35s-.02-.09-.04-.11ZM85.3,62.32c-3.22-3.22-4.99-7.5-4.99-12.06s1.77-8.83,4.99-12.05h0c3.22-3.22,7.5-4.99,12.05-4.99s8.83,1.77,12.05,4.99c3.22,3.22,4.99,7.51,4.99,12.05s-1.77,8.83-4.99,12.05c-3.22,3.22-7.5,4.99-12.05,4.99s-8.83-1.77-12.05-4.99ZM38.57,63c-.38,1.41-.27,2.88.31,4.2-.02,0-.04,0-.06,0-.61.07-1.25.1-1.91.1-4.55,0-8.83-1.77-12.05-4.99-3.22-3.22-4.99-7.5-4.99-12.06s1.77-8.83,4.99-12.05c3.22-3.22,7.51-4.99,12.06-4.99s8.83,1.77,12.05,4.99c3.22,3.22,4.99,7.51,4.99,12.05,0,2.28-.44,4.5-1.32,6.59-.64,1.54-1.51,2.97-2.57,4.26-.86-1.29-2.15-2.22-3.67-2.63-1.55-.41-3.17-.24-4.58.49h0s-.27.15-.27.15c-.06.04-.12.07-.19.11h-.01c-1.37.87-2.35,2.2-2.77,3.77ZM74.57,114.43l-20.44-9.59c-.89-.42-1.61-1.08-2.08-1.9-.47-.82-.68-1.78-.59-2.76l.87-9.59,5.62,9.75c.38.64,1.21.86,1.86.49.32-.19.54-.48.64-.83.09-.35.04-.72-.14-1.03l-18.75-32.48-.05-.09c-.44-.82-.56-1.78-.31-2.7.25-.93.84-1.72,1.64-2.2.05-.03.11-.06.12-.07.83-.46,1.79-.57,2.73-.32.95.26,1.75.86,2.23,1.7l.68,1.17c.02.05.05.1.07.12l18.01,31.19c.38.65,1.2.87,1.85.5.31-.18.54-.48.64-.83s.05-.72-.13-1.03l-10.61-18.38c-.49-.84-.61-1.83-.36-2.79.25-.93.84-1.71,1.64-2.19.06-.03.11-.07.12-.08.83-.46,1.8-.57,2.73-.32.95.25,1.74.86,2.26,1.76l10.58,18.32c.37.65,1.2.87,1.86.5.31-.18.54-.48.64-.83.09-.35.05-.72-.13-1.03l-7.49-12.98c-.49-.85-.62-1.83-.36-2.79.25-.93.84-1.72,1.64-2.2.05-.03.11-.06.12-.07.82-.46,1.79-.58,2.73-.32.95.25,1.74.86,2.23,1.7l7.49,12.97c.37.64,1.2.88,1.86.5.32-.18.54-.48.64-.83s.05-.72-.13-1.03l-5.27-9.12c-.49-.85-.61-1.83-.35-2.78.26-.95.86-1.75,1.75-2.26.83-.47,1.81-.58,2.74-.33.95.25,1.74.86,2.23,1.7l5.26,9.1c1.52,2.92,3.64,7.34,5.07,11.83,1,3.11,1.52,5.81,1.57,8.03l-24.91,14.39ZM99.79,100.34h0s0,0,0,0h0Z"/>
        <path class="cls-1" d="M47.06,43.3c-.26-.26-.6-.4-.96-.4h0c-.36,0-.71.14-.97.4l-11.02,11.03-5.41-5.41c-.53-.52-1.39-.52-1.93,0-.53.53-.53,1.4,0,1.93l6.37,6.37c.26.26.6.4.97.4h0c.36,0,.71-.14.96-.4l11.99-11.99c.53-.53.53-1.4,0-1.93Z"/>
      </g>
    </g>
  </g>
</svg>