<?xml version="1.0" encoding="UTF-8"?>
<svg id="Layer_2" data-name="Layer 2" xmlns="http://www.w3.org/2000/svg" viewBox="0 0 134 134">
  <defs>
    <style>
      .cls-1 {
        fill: #e1e0f0;
      }
    </style>
  </defs>
  <g id="Front_info" data-name="Front info">
    <g>
      <path class="cls-1" d="M67,134C30.06,134,0,103.94,0,67S30.06,0,67,0s67,30.06,67,67-30.06,67-67,67ZM67,2.65C31.52,2.65,2.65,31.52,2.65,67s28.87,64.35,64.35,64.35,64.35-28.87,64.35-64.35S102.48,2.65,67,2.65Z"/>
      <g>
        <path class="cls-1" d="M45.23,71.83c1.4,5.17,4.05,9.37,7.93,12.62,6.56,5.47,16.06,6.77,23.71,3.02,5.42-2.66,9.32-6.9,11.7-12.75.88-2.18,1.35-4.83,1.41-7.96.17-10.63.17-19.77,0-27.39-.12-5.74-2.5-9.98-7.15-12.68-2.59-1.51-4.7-2.27-6.31-2.3-9-.1-13.77-.15-14.31-.16-7.47-.09-13.92,2.61-16.92,9.65-.96,2.22-1.35,5.52-1.19,9.9.02.6.02,7.04,0,19.31,0,2.93.59,6.74,1.13,8.74ZM47.18,46.04c0-.34.28-.62.62-.62h11.59c.6,0,1.08-.48,1.08-1.08v-1.02c0-.57-.47-1.04-1.04-1.04h-11.3c-.51,0-.92-.41-.93-.92-.06-6.28,2.7-10.57,8.26-12.85,1.33-.55,3.46-.76,6.39-.64h3.43c3.33,0,6.65.07,9.99.2,5.13.2,8.65,2.42,10.55,6.64.94,2.09,1.05,4.78,1.29,6.86.04.37-.25.69-.62.69h-12.72c-.64,0-1.15.51-1.15,1.15v1.06c0,.52.42.94.95.94h12.69c.45,0,.81.36.81.81v5.79c0,.49-.4.88-.89.88h-12.2c-.78,0-1.41.63-1.41,1.41v.56c0,.62.5,1.13,1.12,1.13h12.56c.42,0,.76.34.76.76v6.06c0,.38-.31.69-.69.69h-12.67c-.6,0-1.09.49-1.09,1.09v.97c0,.65.52,1.17,1.17,1.17h12.49c.48,0,.86.42.8.9-.83,6.73-4.02,11.98-9.59,15.76-3.96,2.69-9.54,3.69-14.46,2.43-8.4-2.14-14.32-9.7-15.24-18.26-.04-.42.29-.78.71-.78h10.89c.65,0,1.17-.52,1.17-1.17v-1.01c0-.61-.49-1.1-1.1-1.1h-11.64c-.31,0-.56-.25-.56-.56v-6.47c0-.25.2-.44.43-.44h11.68c.65,0,1.17-.52,1.17-1.16v-.99c0-.56-.46-1.01-1.01-1.01h-11.6c-.38,0-.69-.31-.69-.69v-6.14Z"/>
        <path class="cls-1" d="M26.49,46.75c-.93-1.04-2.26-.22-2.98.83-3.02,4.45-4.54,9.06-4.55,13.83,0,4.76,1.49,9.37,4.5,13.83.71,1.05,2.03,1.87,2.97.84.54-.6.57-1.53.08-2.21-2.93-4.02-4.4-8.17-4.39-12.47,0-4.29,1.49-8.44,4.44-12.45.5-.68.47-1.6-.07-2.21Z"/>
        <path class="cls-1" d="M107.32,46.87c-.53.61-.55,1.54-.04,2.21,3,3.98,4.54,8.11,4.59,12.41.06,4.3-1.36,8.47-4.24,12.54-.49.69-.45,1.61.11,2.21.95,1.02,2.26.19,2.97-.87,2.96-4.51,4.4-9.14,4.34-13.92-.07-4.76-1.64-9.36-4.73-13.78-.73-1.05-2.07-1.85-2.99-.79Z"/>
        <path class="cls-1" d="M33.23,62.16c0-2.19.48-4.1,1.47-5.73.41-.67.07-1.56-.72-1.88-1.32-.52-1.99-.21-2.59,1.11-.94,2.04-1.41,4.21-1.41,6.5,0,2.29.48,4.45,1.44,6.5.6,1.32,1.27,1.63,2.59,1.09.78-.32,1.12-1.21.71-1.88-.99-1.63-1.5-3.54-1.5-5.72Z"/>
        <path class="cls-1" d="M100.5,54.62c-.78.32-1.13,1.21-.72,1.87,1,1.63,1.5,3.53,1.5,5.71s-.49,4.09-1.48,5.72c-.41.66-.07,1.56.72,1.87,1.31.52,1.98.21,2.58-1.1.94-2.03,1.41-4.2,1.41-6.49,0-2.29-.47-4.45-1.42-6.49-.6-1.31-1.27-1.63-2.58-1.09Z"/>
        <path class="cls-1" d="M97.77,75.24l-.05-.04c-.72-.51-1.72-.2-2.03.63-1.87,5.11-3.81,9.28-7.84,12.96-9.16,8.32-21.68,10.77-32.96,5.45-7.8-3.69-12.94-9.72-15.44-18.11-.26-.87-1.19-1.36-2.05-1.06l-.09.03c-.88.3-1.36,1.25-1.08,2.13,4.09,12.81,14.86,21.87,28.59,23.04.27.02.47.25.47.52v11.21c0,.25-.21.47-.47.47l-14.87.07c-.85,0-1.53.73-1.48,1.58v.08c.03.83.73,1.5,1.56,1.5h33.81c.8,0,1.47-.64,1.5-1.44v-.21c.11-.78-.49-1.46-1.27-1.47l-15.17-.12c-.25,0-.45-.2-.45-.45v-11.29c0-.32.27-.57.6-.56.83.06,1.54.04,2.13-.05,13.57-2.04,22.68-9.53,27.33-22.46.32-.88,0-1.86-.75-2.4Z"/>
      </g>
    </g>
  </g>
</svg>