<?xml version="1.0" encoding="UTF-8"?>
<svg id="Layer_2" data-name="Layer 2" xmlns="http://www.w3.org/2000/svg" viewBox="0 0 134.14 134.14">
  <defs>
    <style>
      .cls-1 {
        fill: #ff91b0;
      }
    </style>
  </defs>
  <g id="Front_info" data-name="Front info">
    <g>
      <path class="cls-1" d="M67.07,134.14C30.09,134.14,0,104.05,0,67.07S30.09,0,67.07,0s67.07,30.09,67.07,67.07-30.09,67.07-67.07,67.07ZM67.07,2.65C31.55,2.65,2.65,31.55,2.65,67.07s28.9,64.42,64.42,64.42,64.42-28.9,64.42-64.42S102.59,2.65,67.07,2.65Z"/>
      <path class="cls-1" d="M30.49,72.59c.88,3.08,3.11,5.69,6.08,7.01.17.08.36.12.55.12s.37-.04.55-.12c2.97-1.32,5.2-3.93,6.08-7.01.88.35,1.69.86,2.4,1.51.55.5,1.4.47,1.9-.08.5-.55.47-1.4-.08-1.9-1.4-1.29-3.09-2.16-4.91-2.55-.01,0-.03,0-.04-.01-.02,0-.05,0-.07-.01-.13-.03-.25-.05-.38-.07-.05,0-.1-.02-.15-.02-.13-.02-.26-.04-.39-.05-.05,0-.09-.01-.14-.02-.13-.01-.27-.02-.4-.03-.04,0-.09,0-.13,0-.18,0-.35-.01-.53-.01h-7.4c-.56,0-1.11.04-1.64.13-.02,0-.04,0-.06.01-.16.03-.31.05-.47.09,0,0-.01,0-.02,0-.01,0-.02,0-.03,0-4.75,1.02-8.33,5.26-8.33,10.31v8.9c0,1.14.93,2.06,2.06,2.06h18c.74,0,1.35-.6,1.35-1.35s-.6-1.35-1.35-1.35h-17.37v-8.27c0-3.3,2.04-6.13,4.93-7.29ZM40.81,72.02c.1,0,.19,0,.29,0-.64,2.06-2.07,3.81-3.99,4.84-1.91-1.03-3.35-2.78-3.99-4.84.1,0,.19,0,.29,0h7.4Z"/>
      <path class="cls-1" d="M30.11,42.64c2-1.6,4.42-2.45,7-2.45,2.77,0,5.42,1.02,7.48,2.86.26.23.58.34.9.34.37,0,.74-.15,1-.45.5-.55.45-1.4-.1-1.9-2.55-2.29-5.85-3.55-9.28-3.55-3.14,0-6.23,1.08-8.68,3.04-.58.46-.68,1.31-.21,1.89.46.58,1.31.67,1.89.21Z"/>
      <path class="cls-1" d="M37.11,67.46c1.82,0,3.54-.46,5.04-1.27h4.46c.74,0,1.35-.6,1.35-1.35s-.6-1.35-1.35-1.35h-1.21c1.49-1.83,2.38-4.16,2.38-6.7v-1.96c0-.74-.6-1.35-1.35-1.35h-10.1c-.7,0-1.37-.21-1.94-.61-.57-.4-1-.96-1.25-1.61-.63-1.71-2.28-2.85-4.1-2.85h-1.19c-.68,0-1.26.51-1.34,1.19-.04.37-.06.75-.06,1.12v6.06c0,2.54.89,4.87,2.38,6.7h-4c.67-1.64,1.07-3.67,1.07-5.24v-6.86c0-1.77.4-3.46,1.19-5.02.33-.66.07-1.47-.6-1.81-.66-.33-1.47-.07-1.81.6-.98,1.94-1.47,4.04-1.47,6.23v6.86c0,2.27-1.02,4.98-1.67,5.62-.39.38-.51.96-.31,1.47.21.51.7.84,1.25.84h9.61c1.5.81,3.22,1.27,5.04,1.27ZM29.14,51.12c.66.04,1.24.47,1.47,1.09.43,1.17,1.2,2.17,2.23,2.89,1.03.71,2.23,1.09,3.48,1.09h8.75v.61c0,4.39-3.58,7.97-7.97,7.97s-7.97-3.57-7.97-7.97v-5.68Z"/>
      <path class="cls-1" d="M103.64,69.57s-.02,0-.03,0c0,0-.01,0-.02,0-.15-.03-.31-.06-.46-.09-.02,0-.04,0-.06-.01-.54-.08-1.08-.13-1.64-.13h-7.4c-.18,0-.37,0-.55.01-.01,0-.02,0-.04,0-2.6.14-5.02,1.22-6.88,3.07-.53.53-.53,1.38,0,1.9.53.53,1.38.53,1.9,0,.76-.76,1.66-1.35,2.63-1.74.88,3.08,3.11,5.69,6.08,7.01.17.08.36.12.55.12s.37-.04.55-.12c2.97-1.32,5.2-3.93,6.08-7.01,2.89,1.16,4.93,3.99,4.93,7.29v8.27h-18c-.74,0-1.35.6-1.35,1.35s.6,1.35,1.35,1.35h18.63c1.14,0,2.06-.93,2.06-2.06v-8.9c0-5.05-3.57-9.29-8.33-10.31ZM97.72,76.87c-1.91-1.03-3.35-2.79-3.99-4.84.1,0,.19,0,.29,0h7.4c.1,0,.19,0,.29,0-.64,2.06-2.07,3.81-3.99,4.84Z"/>
      <path class="cls-1" d="M97.72,67.46c2.74,0,5.24-1.04,7.13-2.74.69.27,1.43.42,2.18.42,3.3,0,5.98-2.68,5.98-5.98,0-2.84-1.98-5.21-4.64-5.83v-2.59c0-1.55-.35-3.02-.99-4.32-1.61-3.34-5.04-5.66-9-5.66h-1.36c-5.5,0-9.98,4.48-9.98,9.98h0v6.06c0,5.88,4.78,10.66,10.66,10.66ZM110.32,59.15c0,1.81-1.48,3.29-3.29,3.29-.09,0-.18,0-.27-.01,1.01-1.62,1.6-3.53,1.61-5.57,0-.01,0-.02,0-.03v-.67c1.14.52,1.94,1.66,1.94,3ZM97.04,43.45h1.36c3.01,0,5.61,1.84,6.72,4.46.37.87.57,1.83.57,2.83v3.77s0,0,0,0,0,0,0,0v.8c-10.6-1.39-11.73-6.84-11.77-7.07-.09-.67-.66-1.16-1.33-1.16-.03,0-.06,0-.09,0-.71.05-1.26.65-1.26,1.36v3.25h-1.49v-.98c0-4.02,3.27-7.29,7.29-7.29ZM89.75,54.41h2.83c.69,0,1.26-.52,1.34-1.19,2.02,1.99,5.55,4.05,11.67,4.81-.59,3.81-3.9,6.74-7.87,6.74-4.39,0-7.97-3.58-7.97-7.97v-2.39h0Z"/>
      <path class="cls-1" d="M85.19,51.58c.3-1.33.45-2.7.45-4.05,0-2.69-.56-5.29-1.68-7.72-.31-.68-1.11-.97-1.78-.66s-.97,1.11-.66,1.78c.95,2.07,1.43,4.29,1.43,6.6,0,1.17-.13,2.34-.38,3.48,0,0,0,.01,0,.02-2.44,11.84-2.98,15.17-1.04,23.61-.87-.68-1.81-1.27-2.82-1.74-.02-.01-.04-.02-.06-.03-.15-.07-.29-.13-.44-.19-.02,0-.03-.01-.05-.02-.89-.37-1.8-.65-2.73-.85h0c-.24-.05-.48-.09-.72-.13,0,0,0,0,0,0-.24-.04-.48-.07-.73-.09,0,0-.01,0-.02,0-.24-.02-.49-.04-.73-.06,0,0-.01,0-.02,0-.25-.01-.5-.02-.75-.02h-10.76c-.25,0-.5,0-.75.02,0,0-.01,0-.02,0-.25.01-.49.03-.73.06,0,0,0,0-.01,0-.24.02-.49.06-.73.09,0,0,0,0,0,0-1.18.18-2.34.51-3.45.98-.02,0-.04.01-.05.02-.15.06-.29.13-.44.19-.02,0-.04.02-.06.03-1.01.47-1.96,1.06-2.82,1.74,1.94-8.43,1.4-11.76-1.04-23.61,0,0,0-.01,0-.02-.25-1.14-.38-2.31-.38-3.48,0-8.75,7.12-15.87,15.87-15.87,4.39,0,8.62,1.84,11.61,5.05.51.54,1.36.57,1.9.07.54-.51.57-1.36.07-1.9-3.5-3.76-8.45-5.91-13.58-5.91-10.24,0-18.57,8.33-18.57,18.57,0,1.36.15,2.72.45,4.06,2.74,13.31,3.1,15.06-.32,27.85-1.06,2.03-1.67,4.34-1.67,6.79v12.19c0,1.73,1.41,3.14,3.14,3.14h33.93c1.73,0,3.14-1.41,3.14-3.14v-12.19c0-2.45-.6-4.76-1.67-6.79-3.42-12.79-3.07-14.54-.32-27.85ZM57.99,74.77s.06-.02.1-.03c.03,0,.06-.02.09-.03.15-.05.3-.09.46-.13.03,0,.06-.02.09-.02.18-.04.35-.09.53-.12,0,0,0,0,.01,0,.37-.08.76-.13,1.14-.18.04,0,.08,0,.12-.01.01,0,.03,0,.04,0,.38,1.78,1.47,3.33,3.04,4.28l-.89,4.89-4.73-8.64ZM64.77,87.16l1.67-9.15c.11-.63-.23-1.26-.83-1.49-1.08-.43-1.89-1.28-2.26-2.33h7.44c-.38,1.05-1.18,1.9-2.26,2.33-.6.24-.94.86-.83,1.49l1.67,9.15-2.3,4.19-2.3-4.19ZM71.42,83.41l-.89-4.89c1.57-.95,2.66-2.49,3.04-4.28.01,0,.03,0,.04,0,.04,0,.08,0,.12.01.39.04.77.1,1.14.18,0,0,0,0,0,0,.18.04.36.08.53.12.03,0,.06.02.09.02.16.04.31.08.46.13.03,0,.06.02.09.03.03.01.06.02.1.03l-4.73,8.64ZM84.48,98.41c0,.25-.2.45-.45.45h-33.93c-.25,0-.45-.2-.45-.45v-12.19c0-4.39,2.36-8.23,5.88-10.33l10.36,18.91c.24.43.69.7,1.18.7s.94-.27,1.18-.7l10.36-18.91c3.52,2.1,5.88,5.95,5.88,10.33v12.19Z"/>
      <path class="cls-1" d="M79.94,55.11c-5.15-1.34-9.93-3.8-13.8-7.13-3.28-2.82-5.89-6.24-7.36-9.63-.18-.42-.56-.72-1.01-.79-.45-.08-.91.08-1.22.42-2.22,2.41-3.44,5.54-3.44,8.82v8.21c0,7.7,6.26,13.96,13.96,13.96,7.12,0,13.08-5.33,13.87-12.39.07-.67-.35-1.28-1-1.45ZM67.07,66.26c-6.21,0-11.26-5.05-11.26-11.26v-8.21c0-1.91.52-3.75,1.49-5.36,3.33,6.07,10.19,12.86,20.78,15.95-1.1,5.13-5.65,8.87-11.01,8.87Z"/>
    </g>
  </g>
</svg>