<?xml version="1.0" encoding="UTF-8"?>
<svg id="Layer_2" data-name="Layer 2" xmlns="http://www.w3.org/2000/svg" viewBox="0 0 134.14 134.14">
  <defs>
    <style>
      .cls-1 {
        fill: #ff91b0;
      }
    </style>
  </defs>
  <g id="Front_info" data-name="Front info">
    <g>
      <path class="cls-1" d="M67.07,134.14C30.09,134.14,0,104.05,0,67.07S30.09,0,67.07,0s67.07,30.09,67.07,67.07-30.09,67.07-67.07,67.07ZM67.07,2.66C31.55,2.66,2.65,31.55,2.65,67.07s28.9,64.42,64.42,64.42,64.42-28.9,64.42-64.42S102.59,2.66,67.07,2.66Z"/>
      <path class="cls-1" d="M64.12,105.95l-2.59-2.99h11.09l-2.61,3c-.86.99-1.9,1.49-2.94,1.49-1.04,0-2.08-.5-2.95-1.5M57.29,98.07l3.66-.89c.55-.13.94-.63.94-1.19v-3.76c3.42,1.11,7.03,1.1,10.37.04.02,3.88-.05,3.79.07,4.13.14.38.46.68.88.78l3.68.89-2.14,2.46h-15.32l-2.13-2.46ZM74.74,91.25c5.27-2.69,8.83-8.08,8.83-14.27v-.22c.78-.14,1.5-.41,2.13-.78v15.07c0,.63-.53,1.15-1.17,1.15h-9.79v-.94ZM83.57,69.28c1.04.3,1.84.97,2.13,1.79v1.39c-.29.82-1.09,1.49-2.13,1.8v-4.98ZM75.58,63.48c1.37,2.34,3.37,3.07,4.85,3.26.37.05.65.36.65.72v9.51c0,12.08-14.8,18.05-23.55,9.89-2.81-2.62-4.43-6.31-4.43-10.11.07-2.64-.18-2.96.25-3.36.15-.14.36-.22.59-.21.54.03,1.08.05,1.61.05,8.22,0,15.27-3.74,20.03-9.76M46,63.76v27.28c0,1.97,1.64,3.57,3.66,3.57h9.75v.44l-12.77,3.09h-.05s-.93.28-.93.28l-.08.03c-1.67.61-4.58,2.21-5.38,6.11-3.78,18.56-3.63,17.77-3.63,17.83-.46,3.15,1.16,5.67,5.04,5.67l4.15,2.12c-4.52,0,5.05.61,5.05-.06s-.56-.22-1.24-.22h.81v-15.72c0-.67-.56-1.21-1.24-1.21s-1.24.54-1.24,1.21v15.72l-6.28-.99c-1.65,0-2.61-3.79-2.63-5.49,0-.83-.04-.02,3.66-18.38.56-2.72,2.58-3.86,3.77-4.3l.86-.25,7.33-1.78c8.16,9.38,7.67,8.89,8.14,9.34,2.72,2.59,6.61,2.41,9.16-.52l7.68-8.81,7.31,1.77c.21.09,3.85.72,4.63,4.55,3.67,18.21,3.66,17.56,3.66,18.38-.01,1.66-.93,3.45-2.63,3.45l-6.23,2.52v-15.21c0-.67-.56-1.21-1.24-1.21s-1.24.54-1.24,1.21l.12,15.94h1.38c1.92-.94,3.71-2.25,3.71-1.57s-2.89,1.26-2.2,1.26l5.71-1.75c2.63-1.29,5.08-1.65,5.11-4.62.01-1.39-.07-.73-3.71-18.88-1.12-5.47-6.37-6.4-6.39-6.41-.06-.02.48.12-12.82-3.1v-.44h9.79c2.02,0,3.66-1.6,3.66-3.57v-18.24c.16-.68.16-1.38,0-2.06v-6.66c0-.67-.56-1.21-1.24-1.21s-1.24.54-1.24,1.21v3.49c-.66-.38-1.4-.66-2.21-.79-.29-1.26-1.37-2.27-2.73-2.44-1.42-.18-2.5-.99-3.2-2.41-.33-.66-.97-1.1-1.72-1.16-.75-.07-1.46.25-1.91.84-2.14,2.84-8.08,9.21-18.33,9.21-.78,0-1.31-.04-1.5-.05-1.88-.11-3.48,1.36-3.48,3.21v2.79c0,4.46,1.89,8.78,5.2,11.86,1.09,1.02,2.3,1.87,3.59,2.55v1.01h-9.75c-.65,0-1.17-.51-1.17-1.15v-27.28c0-8.84,7.38-16.13,16.3-16.13h.09c3.19.02,6.88.91,9.4,2.26,1.59.86,2.58.18,4.15.18,3.84,0,6.92,3.86,7.29,7.33,0,.05,0,.25,0,1.03,0,1.17,1.36,1.26,1.24,1.21.69,0,1.24-.54,1.24-1.22,0-.22,0-1.06-.02-1.26-.5-4.83-4.72-9.53-9.76-9.53-1.97,0-2.28.49-2.95.12-2.85-1.54-7.01-2.54-10.59-2.56-.04,0-.08,0-.12,0-10.26,0-18.77,8.37-18.77,18.56"/>
      <g>
        <path class="cls-1" d="M103.73,51.34c-.8,0-1.45-.65-1.45-1.45v-2.08c0-.8.65-1.45,1.45-1.45s1.45.65,1.45,1.45v2.08c0,.8-.65,1.45-1.45,1.45Z"/>
        <path class="cls-1" d="M103.73,40.41c-.8,0-1.45-.65-1.45-1.45v-2.08c0-.8.65-1.45,1.45-1.45s1.45.65,1.45,1.45v2.08c0,.8-.65,1.45-1.45,1.45Z"/>
        <path class="cls-1" d="M99.31,44.84h-2.08c-.8,0-1.45-.65-1.45-1.45s.65-1.45,1.45-1.45h2.08c.8,0,1.45.65,1.45,1.45s-.65,1.45-1.45,1.45Z"/>
        <path class="cls-1" d="M110.24,44.84h-2.08c-.8,0-1.45-.65-1.45-1.45s.65-1.45,1.45-1.45h2.08c.8,0,1.45.65,1.45,1.45s-.65,1.45-1.45,1.45Z"/>
      </g>
      <g>
        <path class="cls-1" d="M28.57,51.34c-.8,0-1.45-.65-1.45-1.45v-2.08c0-.8.65-1.45,1.45-1.45s1.45.65,1.45,1.45v2.08c0,.8-.65,1.45-1.45,1.45Z"/>
        <path class="cls-1" d="M28.57,40.41c-.8,0-1.45-.65-1.45-1.45v-2.08c0-.8.65-1.45,1.45-1.45s1.45.65,1.45,1.45v2.08c0,.8-.65,1.45-1.45,1.45Z"/>
        <path class="cls-1" d="M24.15,44.84h-2.08c-.8,0-1.45-.65-1.45-1.45s.65-1.45,1.45-1.45h2.08c.8,0,1.45.65,1.45,1.45s-.65,1.45-1.45,1.45Z"/>
        <path class="cls-1" d="M35.07,44.84h-2.08c-.8,0-1.45-.65-1.45-1.45s.65-1.45,1.45-1.45h2.08c.8,0,1.45.65,1.45,1.45s-.65,1.45-1.45,1.45Z"/>
      </g>
      <g>
        <path class="cls-1" d="M66.47,36.47c-.99,0-1.8-.81-1.8-1.8v-3.38c0-.99.81-1.8,1.8-1.8s1.8.81,1.8,1.8v3.38c0,.99-.81,1.8-1.8,1.8Z"/>
        <path class="cls-1" d="M66.47,18.71c-.99,0-1.8-.81-1.8-1.8v-3.38c0-.99.81-1.8,1.8-1.8s1.8.81,1.8,1.8v3.38c0,.99-.81,1.8-1.8,1.8Z"/>
        <path class="cls-1" d="M59.28,25.9h-3.38c-.99,0-1.8-.81-1.8-1.8s.81-1.8,1.8-1.8h3.38c.99,0,1.8.81,1.8,1.8s-.81,1.8-1.8,1.8Z"/>
        <path class="cls-1" d="M77.03,25.9h-3.38c-.99,0-1.8-.81-1.8-1.8s.81-1.8,1.8-1.8h3.38c.99,0,1.8.81,1.8,1.8s-.81,1.8-1.8,1.8Z"/>
      </g>
    </g>
  </g>
</svg>