<?xml version="1.0" encoding="UTF-8"?>
<svg id="Layer_2" data-name="Layer 2" xmlns="http://www.w3.org/2000/svg" xmlns:xlink="http://www.w3.org/1999/xlink" viewBox="0 0 1089.88 453.9">
  <defs>
    <style>
      .cls-1 {
        clip-path: url(#clippath-1);
      }

      .cls-2 {
        clip-path: url(#clippath-3);
      }

      .cls-3 {
        clip-path: url(#clippath-2);
      }

      .cls-4 {
        fill: #fff;
      }

      .cls-5 {
        clip-path: url(#clippath);
      }

      .cls-6 {
        fill: #ad1a76;
      }
    </style>
    <clipPath id="clippath">
      <rect class="cls-4" x="382" y="313.77" width="8.16" height="8.14"/>
    </clipPath>
    <clipPath id="clippath-1">
      <rect class="cls-4" x="358.92" y="336.78" width="8.16" height="8.14"/>
    </clipPath>
    <clipPath id="clippath-2">
      <rect class="cls-4" x="381.99" y="336.79" width="8.16" height="8.14"/>
    </clipPath>
    <clipPath id="clippath-3">
      <rect class="cls-4" x="358.92" y="313.77" width="8.16" height="8.14"/>
    </clipPath>
  </defs>
  <g id="Front_info" data-name="Front info">
    <g>
      <path class="cls-6" d="M1060.03,203.85c-19.9-23.5-45.45-35.25-76.65-35.25-8.66,0-17.02.47-25.07,1.41l74.27-105.81L927.88,0l-72,128.4c-22,39.2-37.7,70.45-47.1,93.75-9.4,23.3-14.1,50.25-14.1,80.85,0,11.08.69,21.58,2.06,31.5h-89.96l-1.2-2.4,70.2-87.9c14-17.8,24.65-36.35,31.95-55.65,7.3-19.3,10.95-38.95,10.95-58.95,0-40.2-12.95-70.6-38.85-91.2-25.9-20.6-58.05-30.9-96.45-30.9-29.8,0-54.35,4.95-73.65,14.85-19.3,9.9-34.4,23.4-45.3,40.5-5.55,8.71-10.34,19.7-14.36,32.96-5.25-13.13-11.51-24.67-18.79-34.6-26.2-35.8-64.7-53.7-115.5-53.7s-89.05,17.9-115.35,53.7c-9.64,13.12-17.5,29.02-23.6,47.7-3.82-30.09-16.34-53.6-37.59-70.5-25.9-20.6-58.05-30.9-96.45-30.9-29.8,0-54.35,4.95-73.65,14.85-19.3,9.9-34.4,23.4-45.3,40.5C12.95,79.95,5,105.8,0,140.4l106.5,24.3c1.2-12.6,2.75-21.9,4.65-27.9,1.9-6,4.45-10.55,7.65-13.65,3.2-3.1,7.2-4.65,12-4.65,5.8,0,10.3,1.85,13.5,5.55,3.2,3.7,4.8,8.95,4.8,15.75v6.9c0,8.2-2.6,17.25-7.8,27.15-5.2,9.9-13.6,22.35-25.2,37.35L4.5,356.4v89.1h282.9v-67.87c4,8.06,8.44,15.44,13.34,22.12,26.5,36.1,64.85,54.15,115.05,54.15s86.05-18.05,113.55-54.15c5.88-7.72,11.12-16.37,15.74-25.93v71.68h282.9v-36.79c1.69,1.96,3.43,3.88,5.24,5.74,25.7,26.3,61.95,39.45,108.75,39.45s80.9-13.5,107.7-40.5c26.8-27,40.2-62.8,40.2-107.4s-9.95-78.65-29.85-102.15ZM166.2,334.5l-1.2-2.4,70.2-87.9c10.83-13.77,19.65-28,26.47-42.67-.45,9.37-.68,19.09-.68,29.17,0,40.17,3.65,74.77,10.94,103.8h-105.73ZM438.59,309.6c0,8.6-2.05,15.3-6.15,20.1-4.1,4.8-9.65,7.2-16.65,7.2s-12.55-2.4-16.65-7.2c-4.1-4.8-6.15-11.6-6.15-20.4v-156.9c0-8.8,1.95-15.65,5.85-20.55,3.9-4.9,9.55-7.35,16.95-7.35s12.8,2.45,16.8,7.35c4,4.9,6,11.75,6,20.55v157.2ZM689.69,146.7c0,8.2-2.6,17.25-7.8,27.15-5.2,9.9-13.6,22.35-25.2,37.35l-98.91,128.69c8.54-30.11,12.82-66.5,12.82-109.19,0-31.85-2.24-60.18-6.7-84.98l83.19,18.98c1.2-12.6,2.75-21.9,4.65-27.9,1.9-6,4.45-10.55,7.65-13.65,3.2-3.1,7.2-4.65,12-4.65,5.8,0,10.3,1.85,13.5,5.55,3.2,3.7,4.8,8.95,4.8,15.75v6.9ZM965.38,322.5c0,7.8-2.15,14.15-6.45,19.05-4.3,4.9-9.85,7.35-16.65,7.35s-12.35-2.45-16.65-7.35c-4.3-4.9-6.45-11.15-6.45-18.75v-34.2c0-7.8,2.15-14.2,6.45-19.2,4.3-5,9.85-7.5,16.65-7.5s12.35,2.5,16.65,7.5c4.3,5,6.45,11.4,6.45,19.2v33.9Z"/>
      <g>
        <g>
          <g>
            <path class="cls-4" d="M556.45,154.55c-2.21-2.17-5.77-2.13-7.94.07-2.17,2.21-2.14,5.75.07,7.92,3.83,3.75,5.94,8.76,5.94,14.1s-1.98,10.04-5.58,13.75c-2.16,2.22-2.1,5.77.13,7.92,1.09,1.05,2.5,1.58,3.91,1.58s2.93-.57,4.03-1.7c5.64-5.81,8.74-13.46,8.74-21.54s-3.3-16.22-9.3-22.1Z"/>
            <path class="cls-4" d="M507.04,176.64c0-5.4,2.14-10.44,6.03-14.19,2.23-2.15,2.28-5.7.12-7.92-2.16-2.22-5.71-2.28-7.94-.12-6.09,5.88-9.44,13.78-9.44,22.23s3.23,16.04,9.09,21.89c1.1,1.09,2.53,1.64,3.97,1.64s2.87-.55,3.97-1.64c2.19-2.19,2.19-5.73,0-7.92-3.74-3.73-5.8-8.69-5.8-13.97Z"/>
            <path class="cls-4" d="M567.7,143.36c-2.2-2.17-5.76-2.15-7.94.05-2.18,2.2-2.16,5.74.05,7.92,6.84,6.74,10.6,15.73,10.6,25.32s-3.63,18.23-10.21,24.93c-2.17,2.21-2.14,5.75.08,7.92,1.09,1.07,2.51,1.6,3.93,1.6s2.91-.56,4.01-1.68c8.65-8.8,13.42-20.44,13.42-32.77s-4.95-24.42-13.93-33.28Z"/>
            <path class="cls-4" d="M491.16,176.64c0-9.64,3.8-18.67,10.7-25.42,2.21-2.17,2.25-5.71.08-7.92-2.17-2.21-5.73-2.24-7.94-.08-9.07,8.87-14.07,20.74-14.07,33.41s4.88,24.25,13.74,33.09c1.1,1.09,2.53,1.64,3.97,1.64s2.87-.55,3.97-1.64c2.19-2.19,2.19-5.73,0-7.92-6.74-6.72-10.45-15.66-10.45-25.17Z"/>
            <path class="cls-4" d="M578.43,132.66c-2.2-2.18-5.75-2.16-7.94.03-2.18,2.2-2.17,5.74.04,7.92,9.71,9.6,15.05,22.4,15.05,36.03s-5.2,26.07-14.64,35.62c-2.18,2.2-2.15,5.75.06,7.92,1.09,1.08,2.52,1.61,3.94,1.61s2.9-.56,4-1.67c11.53-11.66,17.87-27.1,17.87-43.48s-6.53-32.26-18.38-43.98Z"/>
            <path class="cls-4" d="M475.98,176.64c0-13.55,5.29-26.29,14.9-35.87,2.19-2.19,2.19-5.73,0-7.92-2.19-2.19-5.75-2.19-7.94,0-11.73,11.7-18.19,27.25-18.19,43.79s6.46,32.09,18.19,43.79c1.1,1.09,2.53,1.64,3.97,1.64s2.87-.55,3.97-1.64c2.19-2.19,2.19-5.73,0-7.92-9.61-9.58-14.9-22.32-14.9-35.87Z"/>
            <path class="cls-4" d="M451.27,225.92c.42,1.26,1.56,2.1,2.67,1.84l11.77-2.88c1.11-.26,1.64-2.06,1.01-3.97-.62-1.91-2.11-3.08-3.16-2.64l-11.2,4.61c-1.04.44-1.49,1.78-1.07,3.04Z"/>
            <path class="cls-4" d="M446.42,216.52c0,.6.21,1.22.64,1.75.84,1.06,2.2,1.47,3.16.83l10.03-6.78c.93-.61.82-2.48-.42-4.05-.62-.77-1.37-1.32-2.06-1.57-.71-.23-1.36-.17-1.78.21l-9,8.1c-.42.38-.61.93-.58,1.51Z"/>
            <path class="cls-4" d="M440.28,211.67c1.11.77,2.5.85,3.27-.02l7.89-9.17c.73-.83.16-2.63-1.47-3.8-1.59-1.21-3.46-1.27-4.07-.31l-6.55,10.17c-.6.96-.15,2.31.92,3.13Z"/>
            <path class="cls-4" d="M432.01,207.1c1.27.45,2.63.16,3.15-.88l5.19-10.92c.49-.99-.54-2.59-2.42-3.28-1.85-.76-3.69-.3-4.01.77l-3.61,11.53c-.33,1.1.47,2.25,1.71,2.78Z"/>
            <path class="cls-4" d="M422.83,204.87c1.35.09,2.59-.54,2.8-1.68l2.1-11.9c.21-1.09-1.21-2.36-3.2-2.52-1.99-.24-3.63.68-3.66,1.8l-.43,12.08c-.03,1.14,1.05,2.05,2.39,2.23Z"/>
            <path class="cls-4" d="M410.47,203.63c.27,1.1,1.54,1.68,2.89,1.53,1.33-.21,2.34-1.3,2.26-2.39l-1.1-12.04c-.09-1.17-1.77-1.88-3.75-1.57-1.99.25-3.33,1.58-3.06,2.68l2.76,11.77Z"/>
            <path class="cls-4" d="M401.12,207.14c.55.98,2,1.33,3.21.74,1.19-.65,1.96-1.75,1.55-2.86l-4.25-11.32c-.37-1.02-2.27-1.48-4.05-.56-1.81.86-2.81,2.38-2.25,3.37l5.79,10.61Z"/>
            <path class="cls-4" d="M393.05,213.06c.8.81,2.26.74,3.25-.18,1.06-.83,1.43-2.21.76-3.15l-7.1-9.79c-.65-.92-2.5-.73-4.06.51-1.49,1.33-2.03,3.08-1.24,3.89l8.39,8.72Z"/>
            <path class="cls-4" d="M386.82,220.88c1.01.59,2.3.07,3.09-1.02.82-1.07.75-2.54-.12-3.26l-9.43-7.59c-.88-.72-2.57-.02-3.76,1.58-1.16,1.62-1.13,3.52-.17,4.08l10.39,6.22Z"/>
            <path class="cls-4" d="M371.2,226.78l11.67,3.25c1.1.29,2.21-.54,2.73-1.79.45-1.27,0-2.67-1.01-3.12l-11.1-4.84c-1.07-.48-2.51.64-3.18,2.53-.74,1.86-.21,3.68.89,3.97Z"/>
            <path class="cls-4" d="M381.46,239.92c1.14,0,2.13-1.11,2.19-2.45.02-.34-.03-.67-.12-.98-.06-.3-.16-.58-.31-.83-.3-.49-.77-.85-1.33-.93l-11.99-1.73c-.56-.08-1.13.23-1.6.82-.23.29-.44.66-.6,1.07-.13.42-.21.88-.24,1.38-.11,1.99.75,3.6,1.88,3.59l12.12.07Z"/>
            <path class="cls-4" d="M384.23,246.73c-.2-1.3-1.31-2.24-2.44-2.1l-12.01,1.63c-1.13.14-1.78,1.87-1.43,3.86.45,1.97,1.83,3.25,2.9,2.92l11.63-3.4c1.1-.34,1.64-1.63,1.35-2.92Z"/>
            <path class="cls-4" d="M387.49,255.51c-.62-1.2-1.99-1.8-2.99-1.37l-11.07,4.9c-1.08.47-1.2,2.27-.28,4.04.87,1.8,2.58,2.62,3.53,2.02l10.3-6.36c.97-.61,1.09-2,.52-3.23Z"/>
            <path class="cls-4" d="M393.01,263.31c-.99-.96-2.32-1.33-3.24-.62l-9.46,7.55c-.88.68-.69,2.58.7,3.98,1.35,1.43,3.07,1.94,3.88,1.08l8.42-8.69c.75-.8.65-2.31-.3-3.3Z"/>
            <path class="cls-4" d="M400.31,269.6c-1.13-.78-2.57-.75-3.28.15l-7.34,9.61c-.69.88,0,2.6,1.62,3.71,1.68,1.04,3.51,1.07,4.06.08l6.05-10.47c.56-.99.06-2.38-1.11-3.08Z"/>
            <path class="cls-4" d="M408.86,273.82c-1.26-.49-2.65-.02-3.11,1.02l-4.71,11.13c-.46,1.04.69,2.47,2.56,3.17,1.89.66,3.73.11,3.99-.96l3.08-11.69c.28-1.13-.56-2.22-1.82-2.67Z"/>
            <path class="cls-4" d="M417.95,275.53c-1.29-.08-2.47.81-2.62,1.89l-1.43,12c-.16,1.17,1.38,2.18,3.43,2.29,2.07.16,3.6-.91,3.56-2.02l-.44-12.08c-.04-1.16-1.23-1.96-2.5-2.09Z"/>
            <path class="cls-4" d="M430.32,275.94c-.36-1.09-1.68-1.6-2.99-1.31-1.31.32-2.25,1.38-2.08,2.52l1.97,11.92c.17,1.1,1.91,1.78,3.86,1.31,1.95-.45,3.21-1.85,2.86-2.91l-3.62-11.53Z"/>
            <path class="cls-4" d="M439.38,271.71c-.64-.97-2.04-1.09-3.24-.47-1.17.67-1.81,1.92-1.34,2.98l5.08,10.97c.45,1.02,2.33,1.22,4.07.24,1.77-.93,2.59-2.63,1.98-3.56l-6.55-10.17Z"/>
            <path class="cls-4" d="M447.02,265.25c-.87-.76-2.28-.54-3.26.39-.96.95-1.24,2.34-.51,3.22l7.8,9.25c.71.87,2.57.57,3.99-.83,1.44-1.38,1.82-3.21.98-3.94l-9-8.09Z"/>
            <path class="cls-4" d="M549.15,176.64c0-9.81-7.97-17.76-17.81-17.76s-17.81,7.95-17.81,17.76c0,5.56,2.57,10.53,6.58,13.78v91.03c0,6.18,5.03,11.2,11.23,11.2s11.23-5.01,11.23-11.2v-91.03c4.01-3.26,6.58-8.22,6.58-13.78Z"/>
            <path class="cls-4" d="M907.65,254.01c-.04-.48-.47-.88-.96-.88h-1.28v-16.85h-2.55c0-6.3,0-12.44.02-17.09.02-5.67.05-17.47-8.51-26.03-5.99-5.99-14.84-9.03-26.29-9.03s-20.03,2.95-25.86,8.77c-8.24,8.24-8.22,19.65-8.21,25.78v53.58s.02.56.02.56c.12,1.91-.31,4.43-.88,5.3-.6-1.07-1.08-3.74-1.01-5.74v-108.61c0-4.33-3.51-7.84-7.85-7.84s-7.86,3.51-7.86,7.84v108.09c-.08,2.29-.03,11.54,5.57,17.39,2.87,3,6.65,4.59,10.93,4.59,4.63,0,8.65-1.7,11.63-4.91,5.39-5.82,5.31-14.49,5.16-16.93v-53.36c-.01-4.66-.02-11.04,3.61-14.67,2.77-2.77,7.72-4.17,14.73-4.17s12.23,1.49,15.16,4.42c3.96,3.96,3.93,10.55,3.92,14.92-.01,4.67-.02,10.83-.02,17.14h-2.41v16.85h-1.38c-.49,0-.92.4-.96.88l-1.62,19.39c-.04.48.32.88.81.88h26.87c.49,0,.85-.4.81-.88l-1.62-19.39Z"/>
            <rect class="cls-4" x="886.94" y="275.82" width="16.18" height="15.44"/>
            <path class="cls-4" d="M792.86,260.36s-.02-.05-.04-.08l-5.85-6.83c-.79-.66-1.97-1.48-3.47-1.42-1.73.07-2.98,1.63-2.98,1.63l.02-.12c-4.53,8.89-13.77,14.98-24.45,14.98-15.14,0-27.42-12.24-27.42-27.35s12.28-27.35,27.42-27.35c10.26,0,19.18,5.63,23.88,13.95v-.05s1.25,1.56,2.97,1.63c.83.03,1.58-.22,2.21-.55l8.34-7.63c1.65-2.1,3.24-4.24,4.83-6.39.75-1.01.73-1.03.05-2.07-3.59-5.39-8.11-9.86-13.47-13.51-1.58-1.08-1.29-.88-2.62.07-2.39,1.72-4.74,3.5-7.06,5.31-.56.44-1.03.56-1.7.26-1.24-.56-2.49-1.12-3.77-1.55-.84-.28-1.17-.82-1.28-1.59-.26-1.9-.49-3.8-.75-5.7-.15-1.12-.33-2.23-.49-3.35-.12-.82-.54-1.34-1.39-1.46-1.79-.24-3.56-.69-5.38-.71-2.95-.03-5.91-.09-8.86.03-1.8.07-3.59.45-5.38.72-.67.1-1.11.49-1.21,1.22-.16,1.17-.38,2.33-.55,3.51-.26,1.9-.49,3.8-.75,5.7-.11.76-.38,1.34-1.24,1.62-1.24.4-2.43.95-3.61,1.49-.75.34-1.31.28-2-.27-2.26-1.79-4.58-3.52-6.93-5.2-1.33-.95-1.08-1.16-2.63-.12-5.28,3.57-9.7,7.97-13.28,13.22-1.03,1.51-.96,1.26.13,2.76,1.7,2.33,3.43,4.64,5.22,6.91.5.63.56,1.14.24,1.84-.54,1.18-1.08,2.37-1.49,3.6-.28.82-.79,1.19-1.57,1.3-1.06.15-2.13.26-3.2.41-1.91.25-3.82.48-5.71.79-1.28.21-1.46.45-1.7,1.74-.43,2.34-.76,4.68-.73,7.07.04,3.9-.14,7.81.71,11.66.32,1.45.46,1.65,1.95,1.9.22.04.45.02.68.05,2.69.36,5.38.71,8.06,1.1.68.1,1.22.38,1.47,1.18.38,1.24.89,2.45,1.46,3.62.36.76.34,1.29-.21,1.98-1.86,2.35-3.64,4.77-5.43,7.18-.79,1.07-.77,1.08-.03,2.21,1.03,1.56,2.19,3.02,3.4,4.45,3.01,3.58,6.48,6.64,10.37,9.23.28.19.59.34.86.49.62-.13,1.03-.53,1.48-.86,2.36-1.76,4.72-3.52,7.05-5.32.51-.39.94-.5,1.55-.23,1.29.58,2.59,1.17,3.93,1.61.81.26,1.06.81,1.17,1.49.18,1.06.28,2.12.42,3.19.25,1.9.5,3.8.77,5.7.13.9.52,1.58,1.55,1.72,2.13.28,4.24.75,6.4.72,2.38-.03,4.77,0,7.16-.01,1.99,0,3.93-.47,5.89-.75.75-.11,1.23-.52,1.31-1.33.04-.39.13-.78.18-1.17.36-2.68.7-5.37,1.11-8.04.08-.52.15-1.1.83-1.36,1.43-.54,2.85-1.12,4.24-1.75.69-.31,1.14-.11,1.68.31,2.33,1.8,4.7,3.56,7.05,5.32,1.24.92,1.24.92,2.49.09,5.34-3.57,9.79-8.03,13.41-13.33,1.06-1.56.81-1.33-.12-2.62-1.69-2.34-3.42-4.65-5.22-6.91Z"/>
            <polygon class="cls-4" points="280.11 230.97 280.11 286.88 285.38 292.14 301.18 276.38 301.18 241.48 285.38 225.72 280.11 230.97"/>
            <polygon class="cls-4" points="301.18 175.06 285.38 159.3 280.11 164.55 280.11 220.46 285.38 225.72 301.18 209.95 301.18 175.06"/>
            <polygon class="cls-4" points="289.17 225.72 299.71 236.23 334.69 236.23 345.23 225.72 334.69 215.21 299.71 215.21 289.17 225.72"/>
            <polygon class="cls-4" points="333.22 241.48 333.22 276.38 349.02 292.14 354.29 286.88 354.29 230.97 349.02 225.72 333.22 241.48"/>
            <path class="cls-4" d="M264.84,241.14c-5.46-.03-10.92-.03-16.38,0-5.38.04-8.56,3.09-8.73,8.37-.1,3.36-.08,6.74-.05,10.01l.02,2.62c0,1.7.49,2.92,1.14,3.79-.47.85-.94,1.65-1.46,2.32-.63.8-1.21.99-1.65,1.07-1.14.19-2.21.29-3.27.29h-.88c-10.14-.01-11.91-.01-15.87-.01h-12.21s-.04,0-.05,0c-.76-1.48-2.38-3.18-5.77-3.18-6,.04-12.01.06-18.01,0h-.13c-4.8,0-7.2,2.57-8.36,4.72l-.47.87v16.03l.59.95c1.83,2.93,4.25,4.42,7.2,4.44,4.79.03,9.58.03,14.37.03h5.47c2.4,0,4.33-1.22,5.14-3.17h8.26s10.5,0,10.5,0c4.15,0,8.43.01,18.27.07h.13c5.63,0,9.83-2.44,12.48-7.25,1.04-1.87,2.14-3.77,3.21-5.61,1.52-2.62,3.1-5.32,4.55-8.08.7-1.34.99-1.34,1.62-1.34.11,0,.22,0,.33.01.23.02.45.02.67.02,4.07,0,6.96-2.68,7.53-6.98.56-4.27.37-8.57.15-12.26-.29-4.81-3.42-7.7-8.37-7.72ZM184.19,282.9c-1.52,0-2.76-1.23-2.76-2.75s1.24-2.75,2.76-2.75,2.76,1.23,2.76,2.75-1.24,2.75-2.76,2.75ZM262.21,257.33c-1.52,0-2.76-1.23-2.76-2.75s1.24-2.75,2.76-2.75,2.76,1.23,2.76,2.75-1.24,2.75-2.76,2.75Z"/>
            <path class="cls-4" d="M181.69,214.37c.04.06.1.15.16.26,1.18,2.11,2.39,4.21,3.61,6.3,1.58,2.73,3.22,5.56,4.74,8.36,2.63,4.83,6.74,7.28,12.23,7.28h.23c5.16-.06,7.45-.08,9.34-.08h2.39c1.19.01,2.62.02,4.8.02h3.59c.87,1.93,2.79,3.16,5.11,3.16h9.61c3.52,0,7.05,0,10.57-.05,3.81-.05,6.82-2.64,7.32-6.31.61-4.44.63-9.11.08-13.89-.47-4.05-3.49-6.69-7.7-6.73-3.1-.03-6.2-.03-9.3-.03h-8.74s-1.81,0-1.81,0c-2.4,0-4.33,1.22-5.21,3.16h-13.11c-2.67-.01-3.69-1-4.41-2.48-.15-.32-.31-.63-.48-.93.86-1.02,1.35-2.37,1.35-3.91,0-5.11,0-10.22,0-15.32,0-1.39-.37-2.62-1.07-3.59.52-.94,1.03-1.81,1.63-2.53.41-.5.91-.78,1.63-.89,1.06-.17,2.2-.25,3.78-.25h0c7.31,0,9.81,0,12.84,0h11.06s6.42,0,6.42,0c1.68,0,3.36,0,5.03-.02,4.56-.05,7.52-2.64,8.11-7.11.46-3.46.35-6.84.24-10.1-.02-.63-.04-1.25-.06-1.88-.09-3.51-2.1-6.34-5.36-7.57l-.67-.25h-21.24l-.79.36c-1.75.81-3.96,2.47-4.99,5.88-3.38-.02-5.47-.02-7.05-.02h-3.82c-1.85,0-4.16,0-9.12-.04h-.13c-5.14,0-9.03,2.29-11.56,6.81-1.34,2.39-2.7,4.76-4.07,7.13-1.53,2.66-3.06,5.31-4.55,7.99-.06.12-.12.2-.16.26h-.05c-3.99-.32-7.15,1.38-8.92,4.7l-.46.86v15.93l.51.9c1.81,3.16,4.78,4.83,8.46,4.6ZM241.63,223.38c1.52,0,2.76,1.23,2.76,2.75s-1.24,2.75-2.76,2.75-2.76-1.23-2.76-2.75,1.24-2.75,2.76-2.75ZM244.39,169.53c1.52,0,2.76,1.23,2.76,2.75s-1.24,2.75-2.76,2.75-2.76-1.23-2.76-2.75,1.24-2.75,2.76-2.75ZM184.19,198.27c1.52,0,2.76,1.23,2.76,2.75s-1.24,2.75-2.76,2.75-2.76-1.23-2.76-2.75,1.24-2.75,2.76-2.75Z"/>
            <path class="cls-4" d="M693.63,237.4h-2.12c-1.43-27.08-23.9-48.69-51.4-48.69s-51.54,23.06-51.54,51.41,23.12,51.41,51.54,51.41c15.55,0,30.1-6.9,39.95-18.92,2.74-3.35,2.24-8.29-1.12-11.03-3.36-2.74-8.32-2.24-11.06,1.11-6.84,8.36-16.97,13.16-27.77,13.16-19.75,0-35.82-16.03-35.82-35.73s16.07-35.73,35.82-35.73,34.28,14.58,35.69,33.01h-27.02c-2.7,0-4.88,3.01-4.88,6.72s2.19,6.72,4.88,6.72h44.85c2.7,0,4.88-3.01,4.88-6.72s-2.19-6.72-4.88-6.72Z"/>
            <path class="cls-4" d="M468.88,235.97c.07-.37.14-.74.14-1.15,0-2.11-1.1-3.69-2.23-3.56l-12.06,1.13c-1.13.12-1.94,1.25-1.94,2.48.01.55.19,1.05.47,1.46h-35.1c-4.34,0-7.86,3.51-7.86,7.84s3.52,7.84,7.86,7.84h49.54l.88-6.84c.11-.84.52-4.46.44-9.19h-.13Z"/>
          </g>
          <g>
            <polygon class="cls-4" points="421.5 335.99 424.91 323.89 427.7 323.89 422.87 339.99 420.09 339.99 416.64 327.67 413.19 339.99 410.43 339.99 405.6 323.89 408.39 323.89 411.84 335.99 415.29 323.89 418.05 323.89 421.5 335.99"/>
            <path class="cls-4" d="M445.13,331.99c0,4.63-3.51,8.38-8.12,8.38s-8.12-3.75-8.12-8.38,3.54-8.5,8.12-8.5,8.12,3.81,8.12,8.5M442.47,331.99c0-3.34-2.45-6.06-5.46-6.06s-5.42,2.72-5.42,6.06,2.44,5.94,5.42,5.94,5.46-2.66,5.46-5.94"/>
            <path class="cls-4" d="M471.43,339.99h-2.66v-10.04c0-2.5-1.19-4.03-3.67-4.03-2.2,0-3.79,1.81-3.79,4.22v9.85h-2.63v-10.04c0-2.5-1.25-4.03-3.64-4.03-2.2,0-3.82,1.81-3.82,4.22v9.85h-2.67v-16.1h2.57v1.75c1-1.34,2.51-2.15,4.29-2.15,2.29,0,3.98,1.03,4.98,2.75,1.01-1.66,2.73-2.75,5.05-2.75,3.73,0,5.99,2.53,5.99,6.53v9.98Z"/>
            <path class="cls-4" d="M490.62,334.99c-1.13,3.44-3.89,5.38-7.62,5.38-4.64,0-8.28-3.69-8.28-8.41s3.63-8.47,8.12-8.47c4.17,0,8.18,3.44,8.15,9.16h-13.58c.35,3.34,2.92,5.32,5.58,5.32,2.29,0,3.92-1.09,4.8-2.97h2.82ZM488.05,330.27c-.66-2.63-2.85-4.38-5.2-4.38-2.23,0-4.58,1.63-5.27,4.38h10.47Z"/>
            <path class="cls-4" d="M507.74,339.99h-2.63v-9.79c0-2.47-1.38-4.28-3.95-4.28s-4.23,1.81-4.23,4.22v9.85h-2.67v-16.1h2.57v1.75c1.1-1.34,2.76-2.15,4.7-2.15,3.95,0,6.21,2.81,6.21,6.82v9.69Z"/>
            <g>
              <path class="cls-4" d="M527.6,333.58c0,3.97-2.85,6.79-6.8,6.79s-6.83-2.82-6.83-6.79v-13.13h2.63v3.44h10.91v2.53h-10.91v7.16c0,2.44,1.69,4.22,4.2,4.22s4.17-1.78,4.17-4.22v-1.47h2.63v1.47Z"/>
              <path class="cls-4" d="M546.37,334.99c-1.13,3.44-3.89,5.38-7.62,5.38-4.64,0-8.28-3.69-8.28-8.41s3.64-8.47,8.12-8.47c4.17,0,8.18,3.44,8.15,9.16h-13.57c.34,3.35,2.91,5.32,5.58,5.32,2.29,0,3.92-1.09,4.8-2.97h2.82ZM543.8,330.26c-.66-2.63-2.85-4.38-5.2-4.38-2.23,0-4.58,1.63-5.27,4.38h10.47Z"/>
              <path class="cls-4" d="M556.91,340.37c-4.45,0-8.09-3.75-8.09-8.41s3.64-8.47,8.09-8.47c3.6,0,6.43,2.13,7.52,5.38h-2.85c-.91-1.75-2.57-2.85-4.67-2.85-2.98,0-5.43,2.69-5.43,5.94s2.45,5.88,5.43,5.88c2.13,0,3.79-1.09,4.67-2.84h2.85c-1.07,3.25-3.92,5.38-7.52,5.38"/>
              <path class="cls-4" d="M581.14,339.99h-2.63v-9.79c0-2.5-1.47-4.22-3.95-4.22s-4.23,1.75-4.23,4.16v9.85h-2.66v-23.26h2.66v8.79c1.1-1.25,2.7-2.03,4.61-2.03,3.95,0,6.21,2.81,6.21,6.82v9.69Z"/>
            </g>
            <polygon class="cls-4" points="363.99 329.35 358.22 335.11 352.45 329.35 358.22 323.6 363.99 329.35"/>
            <polygon class="cls-4" points="396.62 329.35 390.85 335.11 385.08 329.35 390.85 323.6 396.62 329.35"/>
            <polygon class="cls-4" points="374.53 318.83 368.77 313.08 374.53 307.32 380.3 313.08 374.53 318.83"/>
            <polygon class="cls-4" points="374.53 351.38 368.77 345.62 374.53 339.87 380.3 345.62 374.53 351.38"/>
            <path class="cls-4" d="M380.54,328.92c0,3.07-2.5,5.57-5.58,5.57s-5.58-2.49-5.58-5.57,2.5-5.57,5.58-5.57,5.58,2.49,5.58,5.57"/>
            <g>
              <rect class="cls-4" x="382" y="313.77" width="8.16" height="8.14"/>
              <g class="cls-5">
                <rect class="cls-4" x="382" y="313.77" width="8.16" height="8.14"/>
              </g>
            </g>
            <g>
              <rect class="cls-4" x="358.92" y="336.78" width="8.16" height="8.14"/>
              <g class="cls-1">
                <rect class="cls-4" x="358.92" y="336.79" width="8.16" height="8.14"/>
              </g>
            </g>
            <g>
              <rect class="cls-4" x="381.99" y="336.79" width="8.16" height="8.14"/>
              <g class="cls-3">
                <rect class="cls-4" x="381.99" y="336.79" width="8.16" height="8.14"/>
              </g>
            </g>
            <g>
              <rect class="cls-4" x="358.92" y="313.77" width="8.16" height="8.14"/>
              <g class="cls-2">
                <rect class="cls-4" x="358.92" y="313.77" width="8.16" height="8.14"/>
              </g>
            </g>
            <g>
              <path class="cls-4" d="M594.49,340.37c-4.45,0-8.09-3.75-8.09-8.41s3.64-8.48,8.09-8.48c3.6,0,6.43,2.13,7.52,5.38h-2.85c-.91-1.75-2.57-2.85-4.67-2.85-2.98,0-5.42,2.69-5.42,5.94s2.45,5.88,5.42,5.88c2.13,0,3.8-1.09,4.67-2.85h2.85c-1.07,3.25-3.92,5.38-7.52,5.38"/>
              <path class="cls-4" d="M620.29,331.99c0,4.63-3.51,8.38-8.12,8.38s-8.12-3.75-8.12-8.38,3.54-8.51,8.12-8.51,8.12,3.81,8.12,8.51M617.62,331.99c0-3.35-2.44-6.07-5.45-6.07s-5.42,2.72-5.42,6.07,2.45,5.94,5.42,5.94,5.45-2.66,5.45-5.94"/>
              <path class="cls-4" d="M636.97,339.99h-2.57v-1.75c-1.1,1.31-2.72,2.12-4.7,2.12-3.95,0-6.2-2.81-6.2-6.78v-9.69h2.63v9.82c0,2.56,1.41,4.25,3.98,4.25,2.38,0,4.2-1.78,4.2-4.19v-9.88h2.67v16.1Z"/>
              <path class="cls-4" d="M655.02,339.99h-2.63v-9.79c0-2.47-1.38-4.29-3.95-4.29s-4.23,1.81-4.23,4.22v9.85h-2.66v-16.1h2.57v1.75c1.1-1.34,2.76-2.16,4.7-2.16,3.95,0,6.21,2.81,6.21,6.82v9.69Z"/>
              <path class="cls-4" d="M666.43,340.37c-4.45,0-8.09-3.75-8.09-8.41s3.64-8.48,8.09-8.48c3.61,0,6.43,2.13,7.53,5.38h-2.85c-.91-1.75-2.57-2.85-4.67-2.85-2.98,0-5.42,2.69-5.42,5.94s2.44,5.88,5.42,5.88c2.13,0,3.8-1.09,4.67-2.85h2.85c-1.07,3.25-3.92,5.38-7.53,5.38"/>
              <path class="cls-4" d="M679.88,321.45h-2.67v-3.16h2.67v3.16ZM679.88,339.99h-2.67v-16.1h2.67v16.1Z"/>
              <rect class="cls-4" x="686.34" y="316.73" width="2.66" height="23.26"/>
              <path class="cls-4" d="M695.76,316.7c1.68,0,3.1,1.33,3.1,3.09s-1.42,3.09-3.1,3.09-3.1-1.33-3.1-3.09,1.41-3.09,3.1-3.09ZM695.76,322.44c1.42,0,2.55-1.15,2.55-2.64s-1.13-2.64-2.55-2.64-2.55,1.15-2.55,2.64,1.13,2.64,2.55,2.64ZM694.58,317.98h1.37c.86,0,1.27.34,1.27,1.03s-.42.93-.96.99l1.04,1.6h-.59l-.98-1.55h-.59v1.55h-.55v-3.62ZM695.13,319.59h.57c.49,0,.97-.03.97-.61,0-.5-.43-.56-.81-.56h-.73v1.16Z"/>
            </g>
          </g>
        </g>
        <g>
          <path class="cls-4" d="M359.16,115.2c-4.9,2.32-9.77,4.75-14.6,7.28,1.87,3.57,3.73,7.14,5.6,10.71,4.27-2.23,8.57-4.39,12.9-6.45.26.54.51,1.07.77,1.61-4.31,2.06-8.59,4.2-12.85,6.42,1.83,3.5,3.66,6.99,5.48,10.49,4.53-2.36,9.09-4.63,13.69-6.8.26.55.52,1.1.78,1.65-5.16,2.44-10.29,5-15.36,7.68l-13.73-25.94c5.47-2.9,10.98-5.67,16.54-8.3.26.55.52,1.1.78,1.65Z"/>
          <path class="cls-4" d="M385.29,117.72c-4.94-3.27-9.98-6.45-15.12-9.54.71-.31,1.43-.62,2.14-.93,4.77,2.92,9.45,5.91,14.04,8.99,1.19-5.39,2.48-10.79,3.89-16.19.73-.27,1.45-.54,2.18-.81-1.55,5.79-2.98,11.57-4.28,17.34,4.92,3.34,9.74,6.76,14.46,10.28-.67.25-1.35.5-2.02.75-4.4-3.28-8.89-6.48-13.46-9.61-1.2,5.44-2.29,10.88-3.26,16.3-.66.28-1.33.57-1.99.86,1.02-5.8,2.17-11.62,3.45-17.44ZM385.48,116.73c.61-.25,1.22-.49,1.84-.74.2.5.4,1,.6,1.5-.61.24-1.22.49-1.83.73-.2-.5-.4-1-.6-1.5Z"/>
          <path class="cls-4" d="M413.43,111.87c2.66-.86,5.33-1.69,8-2.49,2.62-.79,4.39-1.99,5.34-3.64.95-1.65,1.09-3.69.43-6.09-.14-.49-.27-.99-.41-1.48-.66-2.38-1.83-4.03-3.55-4.93-1.71-.9-3.94-.96-6.68-.13-2.82.85-5.63,1.73-8.44,2.64.17-.31.35-.62.52-.93,2.89,9,5.77,18,8.66,27-.61.2-1.23.4-1.84.6-3.05-9.33-6.09-18.67-9.14-28,3.23-1.06,6.46-2.08,9.7-3.05,3.31-1,6.06-.91,8.23.21,2.17,1.12,3.64,3.16,4.43,6.09.13.49.27.99.4,1.48.8,2.93.57,5.44-.64,7.51-1.21,2.08-3.37,3.56-6.51,4.5-2.66.8-5.32,1.62-7.97,2.48-.19-.58-.37-1.16-.56-1.74Z"/>
          <path class="cls-4" d="M448.94,111.25c5.19-1.18,10.39-2.25,15.62-3.21.11.6.22,1.2.33,1.8-5.83,1.07-11.63,2.28-17.42,3.62-2.22-9.58-4.45-19.16-6.67-28.74.67-.16,1.34-.31,2.02-.47,2.04,9,4.08,17.99,6.12,26.99Z"/>
          <path class="cls-4" d="M491.03,77.33c2.14.83,3.82,2.17,5.05,4,1.23,1.83,1.94,4.01,2.17,6.54.15,1.63.29,3.27.44,4.9.23,2.55-.08,4.84-.9,6.87-.82,2.03-2.13,3.65-3.91,4.9-1.78,1.25-3.9,2.02-6.38,2.32-.01,0-.03,0-.04,0-2.53.31-4.78.08-6.79-.7-2-.78-3.66-2.04-4.98-3.8-1.31-1.76-2.16-3.9-2.53-6.44-.25-1.62-.5-3.24-.75-4.85-.39-2.5-.21-4.79.56-6.87.77-2.08,2.08-3.79,3.92-5.11,1.84-1.32,4.15-2.17,6.88-2.51.01,0,.03,0,.05,0,2.67-.33,5.09-.07,7.23.76ZM492.73,103.1c1.49-1.09,2.59-2.5,3.29-4.23.7-1.73.95-3.71.74-5.96-.15-1.6-.3-3.21-.45-4.81-.21-2.21-.83-4.1-1.89-5.66-1.06-1.56-2.48-2.71-4.27-3.45-1.79-.74-3.84-.97-6.14-.68-.02,0-.03,0-.04,0-2.3.28-4.23,1.01-5.79,2.16-1.56,1.15-2.66,2.62-3.32,4.38-.65,1.76-.81,3.75-.48,5.95.24,1.59.48,3.18.72,4.77.33,2.23,1.06,4.09,2.15,5.6,1.09,1.51,2.5,2.6,4.21,3.3,1.71.7,3.63.91,5.77.65.01,0,.03,0,.04,0,2.15-.26,3.95-.94,5.45-2.03Z"/>
          <path class="cls-4" d="M514.59,91.28c2.83-.14,5.67-.25,8.51-.33,2.63-.08,4.61-.73,5.97-2.01,1.35-1.27,2.03-3.01,2.02-5.2,0-.27,0-.54,0-.81-.01-2.22-.72-3.98-2.14-5.25-1.42-1.26-3.51-1.87-6.24-1.79-2.87.08-5.74.2-8.6.34.17-.21.35-.42.52-.63.44,9.46.88,18.93,1.32,28.39-.64.03-1.27.06-1.91.09-.51-9.86-1.01-19.72-1.52-29.58,3.38-.18,6.76-.32,10.15-.42,3.32-.1,5.9.68,7.7,2.27,1.8,1.6,2.69,3.79,2.69,6.56,0,.3,0,.6,0,.9,0,1.74-.38,3.27-1.14,4.59-.76,1.32-1.89,2.35-3.38,3.1-1.5.75-3.29,1.15-5.38,1.21-2.82.08-5.65.19-8.47.33-.03-.58-.06-1.17-.08-1.75ZM523.64,91.66c.64-.07,1.28-.15,1.92-.22,2.8,4.01,5.51,8.05,8.15,12.12-.71,0-1.42,0-2.12,0-2.57-4-5.22-7.97-7.94-11.91Z"/>
          <path class="cls-4" d="M566.34,76.99c-5.29-.41-10.58-.72-15.87-.93-.17,4.07-.34,8.14-.5,12.21,4.68.19,9.36.45,14.03.8-.05.6-.09,1.2-.14,1.8-4.65-.35-9.31-.62-13.97-.8-.16,3.99-.33,7.97-.49,11.95,4.96.2,9.92.5,14.87.89-.05.61-.1,1.23-.15,1.84-5.56-.44-11.13-.76-16.7-.96.36-9.88.72-19.77,1.07-29.65,6.01.2,12.01.54,18,1-.05.61-.1,1.23-.15,1.84Z"/>
          <path class="cls-4" d="M580.57,93.52c2.82.33,5.64.7,8.46,1.09,2.61.36,4.68.05,6.23-.99,1.55-1.03,2.51-2.63,2.87-4.81.04-.27.09-.54.13-.81.36-2.21-.05-4.06-1.24-5.55-1.19-1.49-3.15-2.44-5.86-2.82-2.85-.4-5.7-.76-8.55-1.1.2-.18.41-.36.62-.53-1.15,9.44-2.3,18.87-3.45,28.31-.63-.08-1.27-.15-1.9-.23,1.15-9.84,2.3-19.68,3.44-29.52,3.37.39,6.73.81,10.09,1.28,3.3.46,5.72,1.65,7.24,3.53,1.52,1.88,2.02,4.2,1.57,6.94-.05.3-.1.59-.15.89-.29,1.73-.92,3.18-1.9,4.35-.97,1.18-2.26,2.01-3.86,2.5-1.6.49-3.44.59-5.52.29-2.8-.39-5.61-.76-8.42-1.09.07-.58.14-1.17.21-1.75ZM589.44,95.41c.65.03,1.29.07,1.94.11,2.1,4.43,4.1,8.88,6.03,13.35-.7-.12-1.4-.23-2.1-.35-1.87-4.38-3.83-8.75-5.86-13.11Z"/>
          <path class="cls-4" d="M652.98,92.99c1.6,1.6,2.61,3.44,3.03,5.54.42,2.09.24,4.33-.52,6.71-.48,1.49-.96,2.98-1.43,4.48-.76,2.38-1.91,4.32-3.42,5.83-1.51,1.51-3.31,2.49-5.41,2.95-2.09.46-4.32.35-6.71-.33-3.03-.87-6.08-1.69-9.13-2.48,2.49-9.62,4.98-19.23,7.47-28.85,3.29.84,6.57,1.73,9.84,2.66,2.58.73,4.68,1.91,6.27,3.5ZM644.68,116.62c1.75-.42,3.27-1.27,4.56-2.57,1.29-1.3,2.26-2.96,2.9-4.99.46-1.47.92-2.93,1.38-4.4.62-1.97.76-3.87.42-5.72-.35-1.84-1.18-3.42-2.51-4.75-1.32-1.32-3.07-2.31-5.22-2.91-2.59-.74-5.19-1.44-7.8-2.13-2.22,8.41-4.44,16.83-6.67,25.24,2.44.64,4.87,1.31,7.3,2,2.01.57,3.89.66,5.64.24Z"/>
          <path class="cls-4" d="M681.66,133.3c.09-2.94.16-5.89.21-8.84-4.59-1.88-9.21-3.67-13.85-5.37-1.94,2.22-3.85,4.45-5.75,6.68-.62-.22-1.24-.44-1.87-.66,6.83-8.15,13.92-16.15,21.27-24,.77.29,1.53.59,2.3.89.13,10.74-.04,21.43-.49,32.07-.61-.26-1.22-.52-1.83-.78ZM669.2,117.55c4.32,1.59,8.61,3.25,12.88,4.99.14-6.4.17-12.81.1-19.24-4.42,4.69-8.75,9.44-12.98,14.25Z"/>
          <path class="cls-4" d="M724.73,120.51c.68.36,1.36.71,2.04,1.07-6.46,3.6-12.77,7.34-18.95,11.21-1.67,3.39-3.34,6.77-5.01,10.16-.57-.28-1.15-.56-1.72-.84,1.65-3.38,3.29-6.77,4.94-10.15-.76-7.28-1.7-14.58-2.83-21.9.7.31,1.39.63,2.09.95.97,6.58,1.78,13.16,2.45,19.71,5.55-3.51,11.21-6.92,16.99-10.22Z"/>
        </g>
      </g>
    </g>
  </g>
</svg>