<?xml version="1.0" encoding="UTF-8"?>
<svg id="Layer_2" data-name="Layer 2" xmlns="http://www.w3.org/2000/svg" viewBox="0 0 134 134">
  <defs>
    <style>
      .cls-1 {
        fill: #e1e0f0;
      }
    </style>
  </defs>
  <g id="Front_info" data-name="Front info">
    <g>
      <path class="cls-1" d="M67,0C30.06,0,0,30.06,0,67s30.06,67,67,67,67-30.06,67-67S103.94,0,67,0ZM102.46,120.66c-5.37-5.57-9.14-13.03-9.67-19.19-.08-.98-.01-2.06.23-3.29.68-3.59,2.47-6.8,4.35-10.19,1.56-2.81,3.17-5.71,4.14-8.89,2.73-8.91,2.53-18.51-.56-27.02-.28-.78-1.14-1.18-1.92-.9-.78.28-1.18,1.14-.9,1.92,2.82,7.79,3.01,16.94.51,25.12-.88,2.88-2.35,5.51-3.9,8.31-1.92,3.46-3.9,7.03-4.68,11.09-.29,1.51-.38,2.85-.27,4.11.58,6.74,4.4,14.51,10.07,20.57-9.63,5.75-20.87,9.06-32.87,9.06C31.52,131.35,2.65,102.48,2.65,67S31.52,2.65,67,2.65s64.35,28.87,64.35,64.35c0,22.39-11.5,42.13-28.89,53.66Z"/>
      <path class="cls-1" d="M93.4,36.85c-.83,0-1.5.67-1.5,1.5v18.37c0,.83.67,1.5,1.5,1.5s1.5-.67,1.5-1.5v-18.37c0-.83-.67-1.5-1.5-1.5Z"/>
      <path class="cls-1" d="M83.45,52.69c-.83,0-1.5.67-1.5,1.5v15.03c0,.83.67,1.5,1.5,1.5s1.5-.67,1.5-1.5v-15.03c0-.83-.67-1.5-1.5-1.5Z"/>
      <path class="cls-1" d="M72.23,43.59c-.83,0-1.5.67-1.5,1.5v15c0,.83.67,1.5,1.5,1.5s1.5-.67,1.5-1.5v-15c0-.83-.67-1.5-1.5-1.5Z"/>
      <path class="cls-1" d="M47.52,32.71c4.13,0,7.48-3.36,7.48-7.48s-3.36-7.48-7.48-7.48-7.48,3.36-7.48,7.48,3.36,7.48,7.48,7.48ZM47.52,20.74c2.47,0,4.48,2.01,4.48,4.48s-2.01,4.48-4.48,4.48-4.48-2.01-4.48-4.48,2.01-4.48,4.48-4.48Z"/>
      <path class="cls-1" d="M74.68,10.96c-5.21,0-9.45,4.24-9.45,9.45,0,2.19.76,4.21,2.01,5.81l-14.8,14.81c-.28.28-.44.66-.44,1.06v13.51c0,.83.67,1.5,1.5,1.5s1.5-.67,1.5-1.5v-12.89l14.44-14.44c1.5,1.01,3.31,1.6,5.25,1.6,5.21,0,9.45-4.24,9.45-9.45s-4.24-9.45-9.45-9.45ZM74.68,26.87c-3.56,0-6.45-2.89-6.45-6.45s2.9-6.45,6.45-6.45,6.45,2.89,6.45,6.45-2.89,6.45-6.45,6.45Z"/>
      <path class="cls-1" d="M69.37,102.39c-6.45,5.89-15.05,8.03-22.62,9.34-2.64.46-4.55.23-5.52-.66-.75-.68-1.06-1.86-.92-3.51,0-.04,0-.08,0-.12,0-.42.03-.83.05-1.21.08-1.24.16-2.52-.7-3.44-.48-.51-1.14-.78-1.95-.8-.04,0-.07-.01-.1-.02,1.31-.84,1.58-2.02,1.36-2.88-.32-1.26-1.58-2.03-3.17-1.99,0-.24,0-.55.02-.78.05-1.26.12-2.99-1.09-4.25-.85-.88-2.09-1.31-3.8-1.31-.26,0-.55-.08-.86-.16-.14-.04-.28-.07-.41-.1-.85-.19-1.03-.93-1.06-1.15-.04-.22-.09-1,.68-1.45,2.88-1.68,7.28-5.96,5.5-15.89.79-.87,1.88-1.63,3.18-2.16,2.7-1.09,4.99-.75,5.97.03.65.51,1.59.41,2.11-.24.52-.65.41-1.59-.24-2.11-2.07-1.65-5.59-1.83-8.96-.46-.98.4-1.89.9-2.7,1.49-1.38-9.21,2.11-16.26,5.43-20.66.5-.66.37-1.6-.29-2.1s-1.6-.37-2.1.29c-3.95,5.23-8.12,13.86-5.57,25.23,1.93,8.58-1.02,12.34-3.83,13.98-1.58.92-2.42,2.69-2.13,4.5.28,1.8,1.6,3.22,3.38,3.61.1.02.21.05.32.08.43.11.97.25,1.61.25.8,0,1.4.14,1.64.39.33.34.29,1.25.26,2.05-.04,1.08-.09,2.31.74,3.18.26.27.69.58,1.35.7-.72.65-1.03,1.6-.82,2.52.14.61.75,2.05,3.32,2.38,0,.29-.02.72-.04,1.06-.03.42-.05.87-.06,1.33-.25,3.22.89,4.99,1.89,5.91,1.22,1.11,2.95,1.67,5.16,1.67.89,0,1.86-.09,2.91-.27,3.59-.62,7.41-1.43,11.16-2.71,1.82,3.66,3.07,9.92,2.95,11.04-.11.82.47,1.57,1.29,1.68.07,0,.13.01.2.01.74,0,1.39-.55,1.49-1.31.23-1.77-1.15-8.34-3.1-12.48,3.6-1.5,7.07-3.51,10.15-6.31.61-.56.66-1.51.1-2.12s-1.51-.66-2.12-.1Z"/>
    </g>
  </g>
</svg>