<?xml version="1.0" encoding="UTF-8"?>
<svg id="Layer_2" data-name="Layer 2" xmlns="http://www.w3.org/2000/svg" viewBox="0 0 130.71 125.47">
  <defs>
    <style>
      .cls-1 {
        fill: #010193;
      }

      .cls-2 {
        fill: #fff;
      }
    </style>
  </defs>
  <g id="Front_info" data-name="Front info">
    <g>
      <path class="cls-1" d="M52.24,20.99c8.28-1.66,17.44-11.58,21.04-20.99.8,8.7,5.72,19.16,14.57,19.33,5.78.11,16.57.83,24.85-6.63-4.14,5.8-7.52,16.3-5.78,20.17s5.7,6.32,9.79,7.93c4.45,1.75,9.23,2.74,13.99,3.73-3.89,2.19-16.42,12.07-15.52,22.83.83,9.94,8.68,17.77,12.28,23.48-4.55-.82-10.94.21-15.59,1.37-3.73.93-7.45,3.31-10.71,9.02-2.62,4.59-2.26,9.75-1.27,14.56-2.23-3.75-7.1-5.23-11.73-5.71-15.91-1.62-30.83,2.17-40.34,15.38-.46-5.03-.96-10.19-3.31-14.57-3.1-5.78-9.23-9.39-15.73-11.58-5.36-1.8-12.06-.8-19.6-1.3,7.46-6.32,11.26-18.08,7.9-26.31-2.78-6.82-10.18-10.49-17.08-13.67,9.7.67,19.69-6.21,23.62-15.05s6.46-21.15,1.29-28.63c8,5.74,19.05,8.28,27.33,6.63Z"/>
      <g>
        <path class="cls-2" d="M57.33,35.9c.13.12.18.23.16.34-.02.14-.41.74-1.17,1.77-.4.48-1.03,1.33-1.9,2.52-.87,1.2-1.56,2.19-2.06,2.98-.72,1.06-1.38,1.99-1.98,2.8-.6.81-1.03,1.38-1.3,1.72,0,.02-.01.03-.04.04-.03,0-.05.02-.07.04-.05.18-.21.86-.46,2.02-.18.67-.36,1.33-.54,1.99-.09.31-.22.79-.38,1.45-.16.66-.3,1.14-.41,1.45-.33,1.38-.61,2.32-.84,2.84-.24.52-.48.74-.73.67-.11,0-.46-.2-1.06-.6-.16-.18-.24-.38-.24-.6,0-.18.07-.55.22-1.14.05-.24.11-.48.16-.72.02-.47.1-1.04.26-1.7.15-.66.34-1.21.56-1.64,0-.29.09-.76.27-1.4.18-.64.37-1.23.57-1.79.11-.35.22-.69.33-1.04-.16-.19-.33-.39-.49-.59-.4-.6-.7-1.14-.9-1.62-.2-.48-.34-1.07-.43-1.76-.2-.76-.3-1.58-.3-2.44,0-.27.02-1.04.05-2.3.02-.84.14-1.52.37-2.02.23-.5.35-.78.37-.84.2-.22.41-.34.62-.36.33-.04.58.21.76.76.18.54.26,1.18.24,1.91.11,3.94.47,6.15,1.09,6.6.05.01.14,0,.24,0,.16-.03.32-.12.48-.28.16-.16.4-.48.75-.95.43-.61.72-.99.84-1.15.43-.55.92-1.22,1.47-2.01.54-.79.92-1.35,1.14-1.68,1.27-1.95,2.1-3.13,2.5-3.49.07-.18.26-.36.56-.55.3-.19.5-.31.61-.36.07,0,.13.04.16.12.04.08.08.2.12.35.04.15.1.28.18.38.04.07.12.16.24.28Z"/>
        <path class="cls-2" d="M54.21,53.8c-.63-.47-.95-1.29-.95-2.45,0-.45.03-.96.08-1.52.04-.48.21-1.17.53-2.07.32-.9.75-1.81,1.3-2.74.55-.93,1.2-1.68,1.94-2.26.34-.27.63-.48.87-.62.24-.14.51-.25.81-.34.74-.22,1.35-.27,1.81-.12.46.15.79.37.98.68.19.31.28.6.29.88v.24c0,.23-.13.71-.38,1.42-.25.71-.66,1.43-1.21,2.15-.55.72-1.26,1.25-2.13,1.56-.43.13-.86.2-1.26.23-.41.03-.67.05-.77.08-.27.07-.44.23-.52.46-.07.24-.11.61-.11,1.12.05.53.19.88.42,1.03.22.16.56.17.99.05.22-.06.47-.2.76-.42.29-.24.63-.59,1.03-1.04.22-.26.39-.45.52-.57.13-.12.28-.21.46-.26.16-.05.35,0,.57.17.22.17.33.36.35.56-.04.25-.23.66-.6,1.25-.36.58-.83,1.15-1.41,1.69-.58.54-1.2.91-1.87,1.1-1.03.29-1.86.18-2.5-.29ZM58.36,46.41c.18-.15.45-.48.83-1,.37-.51.57-.85.58-1.02,0-.2-.08-.33-.23-.41-.16-.08-.37-.1-.64-.06-.1.03-.2.06-.3.09-.24.07-.58.38-1.02.93-.44.55-.83,1.14-1.15,1.78.02.09.15.14.41.14.25,0,.52-.04.81-.13.34-.1.58-.21.71-.32Z"/>
        <path class="cls-2" d="M64.36,51.32c-.24.08-.45.13-.65.15-.2.02-.3,0-.3-.09,0-.06,0-.09-.03-.11-.02-.01-.05,0-.11,0-.05-.04-.18-.1-.37-.18-.19-.08-.35-.13-.48-.15-.22-.26-.33-.59-.33-.98,0-.37.11-1,.33-1.9.02-.77.28-1.71.77-2.83.5-1.12,1.1-2.21,1.81-3.27.71-1.06,1.34-1.87,1.9-2.43.27-.39.65-.68,1.14-.86.38-.14.72-.18,1-.11.23.07.53.29.88.67.35.38.62.74.8,1.08.04.12.09.29.15.5.07.21.1.48.1.82-.02.28-.04.56-.05.84-.22.88-.33,1.65-.33,2.3-.04.29-.02.5.05.64.07.14.17.19.3.14.09-.03.19-.1.3-.2.11-.1.23-.18.38-.23.24-.09.44-.09.6,0,.16.1.24.26.24.49,0,.2-.05.4-.14.61-.16.45-.47.92-.91,1.41-.44.48-.85.8-1.24.94-.31.12-.6.05-.88-.2-.28-.25-.5-.63-.67-1.13-.05-.21-.11-.41-.16-.62-.33.44-.65.89-.98,1.33-.21.3-.42.6-.62.9-.29.42-.45.66-.49.74-.09.19-.25.39-.47.61-.22.22-.59.51-1.07.88-.18.1-.34.18-.49.23ZM66.41,46.98c.23-.37.51-.89.86-1.54.07-.14.15-.29.22-.45.07-.15.16-.32.27-.5.31-.56.53-1.01.67-1.33.13-.33.24-.66.31-1-.07-.23-.17-.43-.31-.6-.14-.17-.26-.25-.37-.23-.51.19-1.19,1.09-2.06,2.69-.09.17-.23.47-.42.88-.19.42-.31.7-.37.83-.09.17-.21.54-.37,1.11-.15.57-.23.94-.23,1.09,0,.43.12.61.35.52.18-.06.39-.21.62-.46.33-.31.6-.65.83-1.03Z"/>
        <path class="cls-2" d="M73.49,46.89c-.15-.14-.19-.4-.14-.77.05-.69.19-1.51.41-2.48.05-.21.09-.43.14-.64.05-.55.34-1.71.86-3.46.52-1.76.95-2.97,1.29-3.65.18-.26.49-.48.92-.65.36-.14.62-.16.76-.06.15.06.22.23.22.5,0,.45-.26,1.35-.79,2.68-.09.24-.18.48-.27.72-.13.3-.23.58-.31.82-.08.25-.08.34.01.29.2-.45.69-1.14,1.45-2.08.77-.94,1.3-1.54,1.59-1.81.13-.13.29-.27.49-.42.2-.15.34-.26.41-.33.32-.3.7-.53,1.11-.68.29-.11.54-.16.75-.14.21.01.35.09.42.24.02.13.07.22.15.27.08.05.14.08.18.08.06-.02.09,0,.11.03.02.04.03.08.03.09,0,.16-.13.4-.38.74-.25.34-.51.56-.79.69-.2.09-.41.22-.62.38-.22.16-.43.34-.65.54-.24.23-.47.47-.71.71-.62.56-1.14,1.09-1.56,1.58-.43.49-.86,1.07-1.29,1.74-.09.13-.22.32-.39.56-.17.24-.32.5-.45.79-.13.19-.26.59-.39,1.22-.13.63-.2,1.01-.2,1.15-.02.07-.05.2-.11.39-.05.2-.14.39-.24.56-.16.28-.3.49-.41.63-.11.14-.23.23-.35.28-.18.07-.39.02-.62-.14-.25-.12-.45-.25-.6-.39Z"/>
        <path class="cls-2" d="M86.35,42.23c-.37.13-.64.06-.8-.2-.07-.07-.11-.16-.11-.27,0-.27.42-.61,1.25-.99.94-.55,1.98-1,3.12-1.37.71-.23,1.23-.22,1.56.02.14.11.2.25.2.45,0,.18-.07.35-.21.5-.14.16-.32.25-.52.28-.52.2-1.04.4-1.56.61-.07.03-.34.13-.78.31-.45.19-.9.36-1.36.52-.3.1-.56.15-.78.15Z"/>
        <path class="cls-2" d="M52.93,60.26c.34.53.51,1.11.51,1.74,0,.42-.07.83-.2,1.23-.24.7-.84,1.6-1.81,2.68-.97,1.08-1.86,1.87-2.7,2.4-.82.57-1.68,1.07-2.58,1.48-.12.04-.24.08-.36.11.42.84.94,1.6,1.56,2.26.46.52,1.09,1.08,1.89,1.69.8.61,1.49,1,2.07,1.19.06.05.09.14.09.27,0,.21-.05.46-.16.76-.1.3-.19.46-.25.51-.18.08-.3.13-.38.15-.37.07-.75,0-1.14-.2-.7-.33-1.37-.75-2.03-1.26-.65-.51-1.37-1.2-2.14-2.09-.25-.3-.45-.59-.58-.87-.14-.29-.34-.76-.6-1.43-.34,1.38-1,3.5-1.98,6.34-.01.08-.08.15-.19.2-.11.05-.24.08-.39.09-.36.01-.66-.1-.91-.32-.03-.03-.08-.09-.16-.17-.07-.08-.13-.15-.16-.2-.03-.06-.05-.12-.05-.18,0-.15.12-.51.36-1.09.09-.22.18-.44.27-.65.09-.58.3-1.25.65-2.02.11-.39.71-2.04,1.81-5.01.13-.36.27-.73.4-1.09.08-.21.16-.43.25-.65.4-1.12.94-2.53,1.63-4.23.06-.18.03-.35-.08-.51-.11-.15-.29-.22-.52-.2-.16-.19-.24-.39-.25-.58,0-.19.07-.33.22-.41.68-.32,1.37-.65,2.05-.99.52-.2,1.03-.34,1.52-.42.99-.16,1.9-.1,2.72.2.73.32,1.26.73,1.6,1.27ZM51.35,62.34c0-.32-.13-.65-.39-.99-.26-.34-.53-.54-.81-.58-.71-.06-1.23-.07-1.54-.02-.25.04-.43.13-.55.27-.11.14-.2.36-.28.68,0,.03-.09.25-.27.67-.39.94-.67,1.67-.85,2.19-.15.31-.31.69-.49,1.15-.24.56-.43,1.01-.58,1.36-.15.35-.24.57-.26.68-.02.11,0,.19.06.25.3-.05.61-.15.93-.32.32-.17.82-.45,1.5-.86,2.42-1.59,3.6-3.15,3.52-4.46Z"/>
        <path class="cls-2" d="M53.82,73.77c-.11-.04-.25-.12-.45-.26-.3-.27-.53-.57-.69-.89-.16-.32-.22-.63-.18-.91.05-.12.06-.24.06-.35,0-.11-.01-.18-.01-.22-.06-.05-.09-.09-.09-.11,0-.02.02-.05.04-.08.03-.03.05-.06.07-.1.09-.02.12-.11.09-.29-.03-.12.02-.42.16-.88.13-.47.3-.91.51-1.32.16-.33.41-.75.72-1.26.32-.51.61-.91.86-1.2.74-.88,1.41-1.48,2.01-1.79.3-.17.59-.29.87-.37.43-.12.77-.1,1,.09.33.04.56.18.71.41.15.23.25.56.29,1,.01.09.02.25.02.48,0,1.19-.42,2.56-1.25,4.09-.34.63-.68,1.16-1.02,1.58-.34.42-.76.86-1.25,1.31-.27.27-.55.47-.85.61-.3.14-.7.29-1.2.45-.18.04-.32.05-.42,0ZM57.13,69.23c.13-.31.31-.86.55-1.64.09-.17.13-.47.13-.91,0-.39-.05-.59-.16-.61-.08-.04-.16-.05-.27-.02-.13.04-.35.21-.65.52-.52.63-.95,1.25-1.3,1.86-.35.61-.59,1.27-.73,1.98-.01.07-.02.17-.02.29,0,.55.18.78.53.68.34-.09.77-.48,1.29-1.17.28-.35.49-.68.61-1Z"/>
        <path class="cls-2" d="M65.8,70.44c-.17-.05-.34-.16-.5-.33-.12-.17-.2-.34-.24-.53-.04-.18-.07-.47-.07-.86,0-.19.01-.37.02-.56,0-.15-.02-.21-.07-.19-.04.02-.14.13-.3.33-.16.21-.35.47-.59.8-.45.62-.82,1.11-1.13,1.46-.3.35-.55.55-.75.6-.16.05-.39-.03-.69-.24-.3-.22-.5-.45-.6-.71-.04-.18-.07-.39-.07-.63,0-.74.15-1.69.45-2.85.3-1.16.65-2.19,1.05-3.11.4-.91.74-1.4,1-1.46.24-.05.45,0,.63.16.19.15.34.36.46.63.04.08.07.15.07.22,0,.11-.06.25-.18.4-.22.4-.51,1.02-.85,1.87-.34.85-.62,1.61-.83,2.28-.21.67-.26.99-.16.96.21-.07.4-.19.57-.36.17-.17.4-.45.68-.83.54-.76,1.06-1.69,1.56-2.76.62-1.3.97-2.05,1.03-2.25.08-.19.16-.38.24-.57.15-.37.26-.63.34-.76.08-.13.16-.24.27-.3.17-.06.34-.12.51-.19.09-.02.2.02.31.1.13.01.26.06.38.13.12.07.18.14.18.22-.12.34-.24.68-.36,1.02-.07.19-.13.39-.2.58-.4,1.11-.71,1.99-.91,2.64-.21.65-.36,1.29-.47,1.94-.01.09-.02.23-.02.42,0,.48.05.8.13.97.13.24.27.4.4.48.12.05.12.17,0,.35-.12.18-.29.37-.5.56-.21.19-.35.29-.39.31-.1.1-.24.13-.41.08Z"/>
        <path class="cls-2" d="M75.27,64.52c0-.3.02-.61.07-.92.03-.36.04-.62.04-.76v-.39c-.04-.3-.14-.43-.29-.37-.27.1-.76.57-1.48,1.4-.72.83-1.47,1.78-2.26,2.85-.24.36-.44.7-.6,1-.15.26-.26.44-.33.51-.08.08-.19.14-.36.21-.21.05-.44-.03-.71-.24-.27-.2-.44-.41-.53-.62,0-.45.07-.91.22-1.37.15-.46.37-1.07.67-1.81.13-.53.3-1.08.51-1.64.22-.65.38-1.14.48-1.47.1-.33.16-.67.19-1,0-.02,0-.02-.02-.02,0-.06.02-.13.07-.19.04-.06.1-.11.16-.13.03-.06.12-.12.27-.17.39-.15.72-.16,1-.04.28.12.42.41.42.88,0,.24-.04.49-.12.73-.08.25-.23.66-.46,1.25-.08.21-.16.42-.24.62-.05.12-.11.28-.2.5-.09.22-.13.35-.13.4.37-.42.81-.94,1.32-1.59.74-.93,1.35-1.66,1.83-2.2.47-.54.82-.85,1.05-.93.2-.07.46-.06.81.04.35.1.55.24.61.4,0,.11-.01.28-.03.52-.02.24-.04.44-.06.62,0,.25.01.49.02.74.01.12.02.31.02.57,0,.51-.03.89-.09,1.12.01.01.03.03.04.05.01.03.02.05.02.06,0,.02-.01.04-.02.06.02.16.1.38.25.68.15.3.22.46.22.49,0,.18-.11.41-.32.71-.21.3-.42.5-.61.61-.93.33-1.4-.06-1.4-1.17Z"/>
        <path class="cls-2" d="M79.02,64.73c-.25-.36-.37-.81-.37-1.36,0-.1.02-.2.02-.3.06-.59.17-1.15.33-1.7.16-.54.41-1.16.76-1.85.24-.56.68-1.23,1.31-2.03.64-.79,1.21-1.37,1.69-1.72.35-.28.68-.47.98-.57.27-.1.54-.15.8-.14.21.04.37.04.49,0,.15-.05.25-.17.29-.34.04-.1.11-.28.19-.54.08-.26.16-.48.23-.65.16-.58.33-1.16.49-1.74.19-.57.39-1.13.58-1.69.22-.62.43-1.24.65-1.86.39-.95.75-1.48,1.09-1.59.13-.04.24-.04.33.01.21.09.37.2.48.33.11.12.17.32.17.57,0,.21-.07.52-.2.93-.25.55-.51,1.15-.76,1.81l-.33.93c-.4,1.16-.64,1.86-.71,2.1-.06.24-.12.47-.18.71-.13.5-.23.91-.29,1.26-.12.73-.22,1.12-.31,1.14-.27.4-.52,1.43-.76,3.11-.06.41-.09,1.16-.09,2.25,0,.39-.01.66-.04.81-.03.16-.09.26-.18.3-.24.11-.4.19-.49.22-.34.12-.6.11-.78-.04-.19-.12-.32-.24-.38-.36-.06-.11-.08-.27-.07-.47.02-.2.02-.41.01-.62,0-.22,0-.38.01-.5-.04-.05-.19.11-.45.48-.13.19-.31.42-.51.67-.52.82-.98,1.43-1.39,1.85-.41.42-.84.71-1.28.88-.11.04-.26.08-.47.13-.34.08-.64-.06-.88-.41ZM81.34,62.31c.23-.26.46-.55.7-.88.24-.32.41-.55.51-.71.41-.59.87-1.32,1.35-2.18.48-.86.72-1.36.72-1.49,0-.11-.11-.17-.34-.19-.23-.01-.42.03-.57.13-.33.2-.61.45-.86.76-.25.31-.56.79-.95,1.45-.43.72-.78,1.41-1.04,2.06-.26.65-.39,1.11-.39,1.39,0,.16.05.22.16.18.24-.09.47-.26.7-.53Z"/>
        <path class="cls-2" d="M40.84,96.89c-.08-.06-.15-.13-.2-.23-.11-.11-.21-.25-.28-.41-.07-.16-.11-.4-.11-.72,0-.56.16-1.37.47-2.44.1-.45.21-.89.32-1.31.1-.29.15-.51.15-.65,0-.13.02-.28.05-.45.04-.17.05-.28.05-.35.17,0,.33-.34.47-1,.06-.24.11-.45.15-.62.04-.17.07-.31.09-.4.03-.05.06-.12.1-.22.03-.1.07-.19.1-.27.11-.39.25-.77.41-1.13.17-.73.38-1.5.61-2.31.24-.81.43-1.42.59-1.81.09-.25.17-.5.26-.74.01-.05.05-.14.1-.29.05-.14.08-.24.08-.31,0-.06-.02-.11-.06-.14-.1-.07-.15-.23-.15-.47,0-.4.14-.74.41-1.02.16-.22.37-.39.63-.5.26-.12.58-.19.96-.23.16-.02.44-.04.84-.06.17,0,.63-.06,1.37-.17.08.04.24.08.47.14.48.15.73.24.73.29,0,.08.03.13.08.16.05.02.13.03.23.03.16-.03.44.14.85.49.41.36.69.7.85,1.04.13.26.22.47.27.62.05.15.07.35.07.59,0,.1-.02.28-.04.54-.03.26-.06.52-.11.77-.04.25-.09.42-.15.49-.23.24-.34.43-.34.58,0,.16-.21.65-.62,1.47-.42.82-.78,1.43-1.1,1.82-.37.55-.81,1.05-1.33,1.5-.6.4-1.28.76-2.03,1.07-.75.32-1.32.47-1.71.49-.46.12-.74.21-.85.27-.11.07-.19.2-.25.41-.07.23-.14.46-.2.69-.06.23-.1.38-.1.46-.09.18-.26.73-.53,1.64-.26.91-.45,1.61-.55,2.1-.06.21-.17.38-.34.51-.17.13-.33.19-.47.19-.07,0-.15-.03-.23-.08ZM44.35,88.79c.37-.03.86-.21,1.46-.53.51-.25,1.09-.64,1.72-1.16.31-.29.69-.77,1.12-1.45.09-.17.26-.58.52-1.22.11-.24.23-.55.33-.93.11-.37.16-.7.16-.97,0-.13,0-.23-.02-.29-.14-.81-.56-1.29-1.25-1.45-.46-.01-.78,0-.97.02-.1.02-.26.05-.49.12-.23.11-.39.24-.48.39-.09.15-.22.47-.4.98-.46,1.04-.76,1.77-.9,2.22-.27,1.12-.51,1.98-.71,2.59-.2.6-.32.96-.34,1.05v.1c0,.1,0,.19-.02.29-.01.1,0,.17.04.21.03.03.11.04.24.03Z"/>
        <path class="cls-2" d="M50.73,93.36c-.11-.14-.15-.36-.11-.65.04-.55.15-1.21.32-1.97.04-.17.07-.34.11-.5.04-.44.27-1.34.68-2.71.41-1.36.75-2.3,1.02-2.82.14-.19.39-.33.73-.41.29-.07.49-.05.6.05.11.06.17.22.17.44,0,.37-.21,1.07-.62,2.1-.07.19-.14.37-.21.56-.1.23-.18.44-.25.64-.06.19-.06.27.01.24.16-.34.54-.85,1.15-1.53.61-.68,1.03-1.12,1.26-1.31.1-.09.23-.19.39-.3.16-.11.26-.18.32-.23.26-.22.55-.37.88-.46.23-.06.43-.09.59-.06.16.02.28.1.33.23.01.11.05.19.12.23.06.05.11.07.14.08.04-.01.07,0,.09.04.02.04.02.06.02.08,0,.13-.1.32-.3.58-.2.26-.41.43-.62.51-.16.06-.32.15-.49.26-.17.11-.34.24-.52.38-.19.17-.37.34-.56.51-.49.4-.9.78-1.23,1.13-.34.35-.68.77-1.02,1.28-.07.1-.17.23-.31.41-.14.18-.25.37-.35.59-.1.13-.21.45-.31.95-.11.5-.16.8-.16.92-.01.05-.04.16-.09.31-.04.16-.11.3-.19.43-.13.21-.23.36-.32.46-.08.1-.18.16-.28.18-.14.03-.31-.04-.49-.21-.2-.14-.36-.27-.47-.41Z"/>
        <path class="cls-2" d="M59.57,91.99c-.1-.03-.24-.11-.43-.23-.29-.25-.51-.54-.67-.85-.16-.31-.21-.61-.17-.9.04-.13.06-.24.05-.35,0-.11-.01-.18-.01-.21-.06-.05-.08-.08-.09-.11,0-.02.01-.05.04-.09.03-.03.05-.06.06-.1.09-.02.11-.12.09-.29-.03-.12.02-.42.15-.89.13-.47.29-.92.49-1.35.16-.34.39-.77.7-1.3.31-.53.58-.95.83-1.25.72-.92,1.36-1.55,1.93-1.88.29-.18.57-.31.84-.4.42-.14.74-.12.97.05.32.04.54.16.69.39.14.23.24.55.28.99.01.09.02.25.02.47,0,1.19-.4,2.57-1.2,4.14-.33.65-.66,1.18-.99,1.62-.33.43-.73.89-1.2,1.37-.26.28-.53.49-.82.65-.29.16-.67.33-1.16.51-.17.05-.31.06-.41.03ZM62.76,87.28c.12-.32.3-.88.53-1.66.09-.18.13-.48.13-.91,0-.39-.05-.59-.15-.6-.07-.04-.16-.04-.26,0-.13.04-.34.23-.62.55-.5.65-.92,1.29-1.26,1.92-.34.63-.57,1.3-.7,2.02-.01.07-.02.17-.02.3,0,.55.17.77.52.66.33-.1.74-.51,1.25-1.23.27-.36.47-.7.59-1.03Z"/>
        <path class="cls-2" d="M66.87,94.11c-.42-.1-.76-.28-1.03-.56-.27-.28-.41-.56-.41-.87,0-.31.06-.55.17-.73.11-.18.26-.3.43-.36.13-.05.26-.04.41.03.14.07.31.18.49.34.18.14.35.24.49.31.14.07.28.08.41.03.49-.18.86-.66,1.12-1.45.26-.79.52-1.87.79-3.24.1-.52.2-1.04.3-1.56.01-.06.03-.12.04-.19,0-.01,0-.02-.02,0-.02.01-.03.02-.04,0-.23.28-.68.67-1.35,1.16-.67.49-1.24.82-1.7.98-.27.1-.51.03-.72-.22-.21-.24-.31-.63-.31-1.14v-.15c.03-.08.19-.61.49-1.62.3-1.01.52-1.52.67-1.54.04-.02.11-.13.2-.35.09-.22.14-.36.14-.43.01-.05.1-.17.25-.37.15-.19.27-.34.35-.46.19-.23.37-.46.56-.69.51-.72.97-1.29,1.37-1.71.4-.42.77-.7,1.09-.86.07-.02.14-.04.21-.06.04-.02.13-.04.25-.08.12-.04.34-.05.65-.04.32.02.64.26.97.69.33.44.51.86.54,1.27-.03.38-.1.77-.21,1.16-.11.39-.23.61-.34.65-.2.08-.35.19-.45.34-.1.15-.19.37-.28.66-.16.43-.27.7-.32.8-.11.66-.23,1.33-.34,1.99-.1.55-.2,1.11-.3,1.66-.17.82-.35,1.53-.54,2.13-.07.61-.26,1.22-.57,1.84-.31.62-.66,1.16-1.07,1.62-.41.46-.79.76-1.15.91-.42.15-.83.18-1.25.08ZM69.29,84.9c.55-.46.89-.81,1.02-1.07.07-.12.21-.39.42-.8.21-.41.44-.75.7-1.02.09-.08.17-.2.25-.36.08-.16.12-.29.12-.41v-.05c-.01-.06-.06-.15-.13-.29-.07-.13-.18-.25-.31-.34-.14-.09-.29-.11-.46-.04-.14.09-.47.5-1,1.25-.52.74-1.01,1.5-1.46,2.28-.45.78-.67,1.29-.68,1.53,0,.18.1.23.3.16.27-.1.68-.38,1.23-.83Z"/>
        <path class="cls-2" d="M74.36,86.36c-.16-.1-.26-.21-.29-.32-.01-.03-.02-.1-.02-.21,0-.21.09-.65.26-1.33.05-.28.1-.55.15-.83.14-.76.27-1.41.39-1.93.04-.11.13-.42.26-.92.09-.39.2-.77.34-1.17.17-.79.44-1.61.82-2.46.04-.1.11-.22.21-.37.1-.15.17-.23.22-.25.09-.13.21-.23.36-.28.23-.09.44-.08.62.03.19.17.28.39.28.66,0,.31-.1.72-.3,1.25-.12.4-.3.92-.56,1.57-.2.48-.32.79-.36.94.17-.32.54-.95,1.12-1.88.17-.27.34-.51.49-.71.16-.2.39-.47.71-.81.32-.37.57-.65.75-.83.19-.18.4-.31.64-.4.11-.04.2-.07.26-.07.18-.08.38-.02.59.19.21.21.31.5.31.87,0,.15-.02.3-.06.46-.17.03-.29.06-.37.09-.29.1-.54.27-.76.48-.22.21-.4.4-.55.58-.14.17-.23.28-.28.33-.5.56-1.1,1.28-1.78,2.17-.35.45-.6.83-.77,1.14-.17.31-.31.62-.41.93-.03.11-.16.53-.41,1.28-.24.74-.43,1.2-.56,1.36-.07.21-.26.36-.56.48-.16.06-.27.08-.34.06-.1.04-.23,0-.4-.09Z"/>
        <path class="cls-2" d="M83.36,83.27c-.18.07-.36.11-.51.13-.16.02-.24,0-.24-.07,0-.05,0-.08-.02-.09-.01,0-.04,0-.09,0-.04-.03-.14-.08-.29-.15-.15-.06-.27-.1-.38-.11-.17-.21-.26-.47-.26-.8,0-.31.08-.83.26-1.57.02-.63.22-1.41.61-2.34.39-.92.87-1.82,1.43-2.69.56-.87,1.06-1.53,1.5-1.97.22-.32.51-.54.9-.68.3-.11.57-.12.79-.05.19.06.42.26.7.58.28.33.49.63.63.92.03.1.07.24.12.42.05.18.08.4.08.67-.01.23-.03.46-.04.69-.17.72-.26,1.34-.26,1.87-.03.24-.01.41.04.53.06.12.14.16.24.13.07-.02.15-.07.24-.15.08-.08.18-.13.3-.17.19-.06.34-.05.47.04.13.09.19.23.19.42,0,.16-.04.32-.11.49-.13.36-.37.73-.72,1.1-.35.37-.68.61-.98.71-.24.08-.48.01-.7-.2-.22-.21-.4-.53-.53-.95-.04-.17-.09-.34-.13-.51-.26.35-.51.71-.77,1.06-.16.24-.33.49-.49.73-.23.34-.36.54-.39.6-.07.16-.2.32-.38.49-.18.18-.46.42-.85.71-.14.09-.27.15-.39.19ZM84.98,79.72c.18-.31.4-.72.68-1.25.06-.12.12-.24.17-.36.06-.13.13-.25.22-.4.24-.45.42-.81.53-1.07.11-.26.19-.53.25-.81-.06-.19-.14-.36-.25-.51-.11-.15-.21-.22-.29-.2-.4.14-.95.86-1.63,2.17-.07.14-.18.38-.33.72-.15.34-.25.57-.29.68-.07.14-.17.44-.29.91-.12.47-.18.77-.18.9,0,.35.09.49.28.43.14-.05.31-.17.49-.37.26-.25.48-.54.65-.84Z"/>
        <path class="cls-2" d="M100.49,77.96c-.11-.03-.26-.11-.44-.27-.18-.15-.33-.39-.47-.7-.14-.32-.2-.72-.2-1.2,0-.3.02-.58.05-.82.04-.24.05-.39.05-.46,0-.08-.02-.11-.06-.11-.37.08-1.18,1-2.43,2.82-.04.04-.08.09-.11.15-.17.19-.33.38-.47.57-.21.28-.39.49-.53.62-.14.14-.28.24-.44.29-.1.03-.21,0-.32-.06-.08-.05-.16-.1-.24-.16-.07-.03-.14-.1-.19-.22-.06-.11-.09-.23-.09-.34v-.12c.16-.58.33-1.16.49-1.75.36-.98.54-1.54.54-1.71,0-.03,0-.05-.02-.04-.13.02-.32.19-.57.52-.25.33-.6.84-1.06,1.53-.32.47-.64.93-.97,1.4-.12.16-.42.64-.92,1.43-.31.53-.48.79-.49.8-.32.1-.6.04-.85-.15-.25-.19-.38-.49-.38-.87,0-.19.03-.46.09-.8.06-.34.12-.7.19-1.07.03-.14.06-.29.1-.46.04-.17.07-.37.12-.59.03-.17.06-.36.1-.56.04-.2.11-.48.23-.83.12-.35.28-.84.49-1.46.06-.23.09-.45.09-.68,0-.11,0-.22-.02-.32-.02-.1-.02-.17-.02-.2,0-.24.1-.48.31-.71.21-.23.44-.38.7-.46.37-.11.65-.04.84.21.19.25.28.53.28.85,0,.27-.06.55-.17.84-.08.24-.16.48-.24.72-.06.16-.16.45-.31.87-.15.42-.22.67-.23.75,0,.05.01.07.04.06,0,0,.01,0,.02,0,.07-.02.19-.14.34-.36.46-.61,1.01-1.26,1.66-1.96.65-.69,1.12-1.12,1.41-1.28.11-.03.27,0,.45.08.19.09.35.22.49.4.14.19.21.41.21.66,0,.07-.01.13-.02.2-.01.07-.08.35-.18.86-.11.51-.19.81-.25.9.27-.42.74-.96,1.42-1.63.67-.67,1.17-1.03,1.48-1.11.47-.09.78.07.92.48.14.41.24,1.03.3,1.85.06.78.14,1.3.24,1.55.03.09.13.16.3.19.17.04.31.09.42.16.11.07.16.24.16.49,0,.35-.14.62-.42.81-.28.19-.61.32-1,.38-.19.03-.33.02-.43-.02Z"/>
        <path class="cls-2" d="M103.63,77.93c-.39-.17-.7-.42-.92-.73-.23-.31-.34-.64-.34-.97,0-.27.1-.43.3-.46.13.01.28.08.45.2.21.12.4.2.55.26.15.06.31.08.46.06.24-.03.46-.1.63-.21.18-.11.28-.25.31-.43,0-.06-.03-.2-.09-.41-.06-.21-.13-.4-.22-.57-.31-.5-.53-.99-.63-1.48-.11-.49-.18-1.08-.2-1.75,0-.37.24-.84.72-1.41.48-.56,1.04-1.08,1.68-1.53.64-.45,1.16-.71,1.56-.77.79-.04,1.26.03,1.42.17.2.17.39.46.56.86.17.4.26.74.26,1.01,0,.11-.05.25-.14.42-.09.17-.15.28-.18.33-.06.11-.13.23-.19.34-.05.12-.1.24-.15.36-.03.08-.07.2-.14.36-.06.16-.12.26-.17.29-.05.03-.12.04-.23.03-.24,0-.47-.11-.67-.34-.2-.23-.3-.49-.3-.78,0-.21.06-.42.19-.64.13-.21.19-.34.19-.37,0-.07-.07-.09-.19-.09-.19,0-.47.13-.86.36-.39.23-.73.53-1.03.91-.3.37-.45.77-.45,1.18,0,.23.04.48.12.77.08.29.17.53.27.71.12.12.28.49.5,1.11.22.62.33,1.12.33,1.49,0,.57-.19,1-.57,1.32-.38.32-.91.5-1.58.58-.45.05-.86-.01-1.25-.19Z"/>
      </g>
    </g>
  </g>
</svg>